<svg width="694" height="374" viewBox="0 0 694 374" fill="none" xmlns="http://www.w3.org/2000/svg">
<path d="M0 20.4352L16.7514 36.3324L22.1431 13.8766L0 20.4352ZM415.533 52.8196L416.993 51.4528L415.533 52.8196ZM5.78024 21.6287L5.46131 23.6031C6.75264 23.8117 8.08496 23.994 9.45654 24.1514L9.68458 22.1644L9.91262 20.1775C8.59674 20.0265 7.32527 19.8524 6.09918 19.6543L5.78024 21.6287ZM13.6797 22.5443L13.5267 24.5384C14.8304 24.6385 16.1657 24.7196 17.5315 24.7827L17.6239 22.7849L17.7163 20.787C16.3881 20.7256 15.0933 20.6469 13.8328 20.5501L13.6797 22.5443ZM21.6016 22.9166L21.5601 24.9162C22.885 24.9437 24.2358 24.9564 25.6116 24.9553L25.61 22.9553L25.6083 20.9553C24.2593 20.9564 22.9373 20.9439 21.6431 20.917L21.6016 22.9166ZM29.5381 22.9157L29.5757 24.9154C30.9191 24.8901 32.2845 24.853 33.6711 24.8047L33.6015 22.8059L33.5319 20.8071C32.1653 20.8547 30.8213 20.8912 29.5004 20.9161L29.5381 22.9157ZM37.5016 22.6438L37.5976 24.6415C38.9139 24.5782 40.2479 24.506 41.5992 24.4252L41.4798 22.4287L41.3604 20.4323C40.0239 20.5122 38.7055 20.5836 37.4056 20.6461L37.5016 22.6438ZM45.5036 22.1668L45.6436 24.1619C46.9355 24.0712 48.2419 23.9735 49.5625 23.8692L49.405 21.8754L49.2476 19.8816C47.938 19.9851 46.6432 20.0819 45.3636 20.1717L45.5036 22.1668ZM53.3933 21.5443L53.5665 23.5368C54.8884 23.4219 56.2237 23.301 57.5717 23.1745L57.3848 21.1832L57.1979 19.192C55.8585 19.3177 54.5325 19.4377 53.2202 19.5518L53.3933 21.5443ZM61.2933 20.8045L61.4919 22.7946C62.8103 22.6629 64.1402 22.5264 65.4813 22.3854L65.2721 20.3963L65.0628 18.4073C63.7284 18.5477 62.4055 18.6835 61.0946 18.8144L61.2933 20.8045ZM69.2613 19.9671L69.4797 21.9552C70.7737 21.813 72.0775 21.667 73.3908 21.5174L73.1645 19.5303L72.9381 17.5431C71.6298 17.6921 70.3313 17.8375 69.0428 17.9791L69.2613 19.9671ZM77.1254 19.072L77.3587 21.0583C78.6871 20.9023 80.0246 20.7431 81.371 20.5809L81.1317 18.5952L80.8924 16.6096C79.5498 16.7714 78.2163 16.9301 76.8922 17.0856L77.1254 19.072ZM85.0248 18.121L85.2691 20.1061C86.5764 19.9452 87.8916 19.7818 89.2144 19.6162L88.966 17.6317L88.7175 15.6472C87.3972 15.8125 86.0849 15.9755 84.7806 16.136L85.0248 18.121ZM92.9535 17.1286L93.2055 19.1127C94.5089 18.9471 95.8192 18.7796 97.1362 18.6104L96.8814 16.6267L96.6265 14.6431C95.3112 14.812 94.0027 14.9793 92.7015 15.1446L92.9535 17.1286ZM100.804 16.1205L101.061 18.104C102.376 17.9336 103.697 17.7618 105.024 17.5887L104.766 15.6055L104.507 13.6223C103.181 13.7952 101.861 13.9669 100.547 14.1371L100.804 16.1205ZM108.739 15.0863L108.999 17.0694C110.296 16.8995 111.599 16.7287 112.907 16.5572L112.647 14.5741L112.387 12.5911C111.079 12.7627 109.776 12.9334 108.48 13.1032L108.739 15.0863ZM116.587 14.0573L116.847 16.0403C118.166 15.8674 119.489 15.6939 120.818 15.5201L120.558 13.537L120.299 11.5539C118.97 11.7278 117.646 11.9014 116.327 12.0743L116.587 14.0573ZM124.498 13.0223L124.757 15.0055C126.06 14.8356 127.368 14.6655 128.68 14.4953L128.423 12.5119L128.165 10.5285C126.852 10.6988 125.544 10.869 124.239 11.0391L124.498 13.0223ZM132.373 12.0015L132.628 13.9852C133.949 13.8152 135.273 13.6455 136.601 13.4761L136.348 11.4921L136.095 9.5082C134.765 9.67782 133.439 9.84778 132.118 10.0179L132.373 12.0015ZM140.272 10.9942L140.523 12.9784C141.831 12.8134 143.142 12.6489 144.456 12.4851L144.209 10.5004L143.961 8.51578C142.645 8.67988 141.332 8.84465 140.022 9.00991L140.272 10.9942ZM148.165 10.0107L148.409 11.9958C149.728 11.8337 151.05 11.6725 152.375 11.5124L152.134 9.52681L151.894 7.54128C150.567 7.70179 149.243 7.86329 147.922 8.02562L148.165 10.0107ZM156.063 9.05585L156.299 11.0419C157.61 10.8861 158.924 10.7316 160.24 10.5783L160.009 8.59169L159.777 6.60512C158.458 6.75878 157.141 6.91373 155.827 7.06981L156.063 9.05585ZM163.969 8.1353L164.196 10.1224C165.513 9.97237 166.832 9.82375 168.153 9.67675L167.932 7.68901L167.711 5.70128C166.386 5.84869 165.063 5.99771 163.743 6.14816L163.969 8.1353ZM171.873 7.25613L172.089 9.24449C173.402 9.10208 174.718 8.96142 176.035 8.82265L175.826 6.83365L175.616 4.84466C174.295 4.98386 172.975 5.12496 171.658 5.26778L171.873 7.25613ZM179.79 6.4225L179.993 8.41216C181.31 8.2777 182.628 8.14528 183.948 8.01504L183.752 6.0247L183.556 4.03437C182.231 4.16506 180.908 4.29794 179.586 4.43284L179.79 6.4225ZM187.704 5.64184L187.893 7.63286C189.209 7.50773 190.527 7.38492 191.845 7.26458L191.663 5.27286L191.482 3.28114C190.158 3.40195 188.836 3.52522 187.514 3.65081L187.704 5.64184ZM195.629 4.91869L195.803 6.91111C197.122 6.79604 198.441 6.68358 199.76 6.57388L199.595 4.58076L199.429 2.58763C198.104 2.6978 196.779 2.81073 195.456 2.92626L195.629 4.91869ZM203.557 4.26001L203.714 6.25384C205.032 6.15001 206.351 6.04907 207.67 5.95119L207.522 3.95667L207.374 1.96215C206.049 2.0605 204.724 2.16189 203.4 2.26619L203.557 4.26001ZM211.49 3.67161L211.629 5.66681C212.949 5.57515 214.269 5.4867 215.589 5.40158L215.461 3.40573L215.332 1.40987C214.005 1.49542 212.678 1.58432 211.352 1.67642L211.49 3.67161ZM219.432 3.15991L219.55 5.15641C220.87 5.07812 222.19 5.00334 223.51 4.9322L223.402 2.9351L223.295 0.937995C221.968 1.00953 220.641 1.08472 219.313 1.16342L219.432 3.15991ZM227.372 2.73218L227.468 4.72985C228.79 4.666 230.112 4.60596 231.432 4.54988L231.348 2.55168L231.263 0.553481C229.934 0.609897 228.605 0.670289 227.275 0.734505L227.372 2.73218ZM235.326 2.39476L235.399 4.39343C236.72 4.34536 238.041 4.3014 239.361 4.26172L239.301 2.26262L239.24 0.263523C237.912 0.303464 236.583 0.3477 235.254 0.396078L235.326 2.39476ZM243.269 2.15618L243.316 4.15563C244.64 4.12449 245.963 4.09781 247.284 4.07576L247.251 2.07603L247.217 0.0763136C245.887 0.0985265 244.555 0.125386 243.222 0.156735L243.269 2.15618ZM251.235 2.02358L251.254 4.02349C252.575 4.01081 253.896 4.00292 255.214 3.99998L255.21 1.99998L255.205 -1.07288e-05C253.877 0.00295401 252.547 0.0109013 251.215 0.0236742L251.235 2.02358ZM259.175 2.00617L259.164 4.00614C260.49 4.0133 261.814 4.02564 263.135 4.04332L263.162 2.0435L263.189 0.0436752C261.856 0.0258528 260.522 0.0134145 259.186 0.00619924L259.175 2.00617ZM267.146 2.1132L267.103 4.11273C268.424 4.14133 269.742 4.17546 271.057 4.21526L271.118 2.21617L271.178 0.217089C269.851 0.176933 268.521 0.142513 267.19 0.113665L267.146 2.1132ZM275.075 2.35339L274.997 4.35186C276.324 4.40381 277.648 4.46175 278.97 4.52583L279.066 2.52818L279.163 0.530524C277.829 0.465832 276.493 0.407355 275.154 0.354923L275.075 2.35339ZM283.045 2.74028L282.929 4.73691C284.246 4.81353 285.56 4.89647 286.87 4.9859L287.006 2.99054L287.143 0.995181C285.819 0.90483 284.491 0.821046 283.161 0.74366L283.045 2.74028ZM290.956 3.28055L290.799 5.27439C292.124 5.37863 293.446 5.48973 294.763 5.60787L294.942 3.61586L295.12 1.62385C293.788 1.50439 292.452 1.39208 291.113 1.28672L290.956 3.28055ZM298.905 3.99367L298.704 5.98354C300.014 6.1159 301.32 6.25547 302.622 6.40242L302.846 4.41504L303.07 2.42766C301.753 2.27894 300.432 2.13771 299.107 2.00381L298.905 3.99367ZM306.79 4.88444L306.542 6.86894C307.859 7.03388 309.171 7.20664 310.479 7.3874L310.753 5.40623L311.026 3.42507C309.702 3.24194 308.372 3.06696 307.039 2.89994L306.79 4.88444ZM314.688 5.97648L314.388 7.95386C315.686 8.15079 316.979 8.35591 318.267 8.56938L318.594 6.5963L318.921 4.62321C317.615 4.40671 316.303 4.19874 314.988 3.99911L314.688 5.97648ZM322.525 7.27668L322.17 9.24487C323.473 9.48008 324.77 9.72418 326.062 9.97734L326.447 8.01468L326.831 6.05203C325.52 5.79496 324.203 5.54719 322.881 5.30849L322.525 7.27668ZM330.334 8.80774L329.919 10.7642C331.202 11.0363 332.479 11.3177 333.75 11.6086L334.196 9.65907L334.642 7.70952C333.351 7.41376 332.053 7.12775 330.749 6.85127L330.334 8.80774ZM338.091 10.5854L337.612 12.5271C338.893 12.8433 340.167 13.1694 341.434 13.5058L341.948 11.5728L342.461 9.63973C341.171 9.29724 339.874 8.96529 338.571 8.64366L338.091 10.5854ZM345.763 12.6225L345.215 14.5459C346.483 14.9073 347.744 15.2794 348.998 15.6623L349.582 13.7496L350.166 11.8369C348.888 11.4464 347.603 11.0672 346.311 10.6991L345.763 12.6225ZM353.388 14.9534L352.766 16.8542C354.014 17.2627 355.254 17.6825 356.486 18.1138L357.147 16.2261L357.808 14.3384C356.55 13.898 355.284 13.4695 354.01 13.0526L353.388 14.9534ZM360.867 17.5724L360.167 19.4457C361.405 19.9088 362.635 20.3841 363.856 20.8718L364.598 19.0145L365.34 17.1572C364.091 16.6584 362.834 16.1724 361.568 15.6991L360.867 17.5724ZM368.275 20.5322L367.491 22.372C368.693 22.8846 369.887 23.4098 371.07 23.9478L371.898 22.127L372.725 20.3063C371.513 19.755 370.29 19.2172 369.059 18.6924L368.275 20.5322ZM375.506 23.8203L374.634 25.6202C375.816 26.1932 376.989 26.7796 378.151 27.3797L379.069 25.6027L379.986 23.8256C378.793 23.2097 377.591 22.608 376.378 22.0205L375.506 23.8203ZM382.57 27.4689L381.607 29.2214C382.753 29.8518 383.888 30.4962 385.013 31.1549L386.024 29.4291L387.035 27.7033C385.878 27.0262 384.712 26.364 383.534 25.7165L382.57 27.4689ZM389.434 31.4901L388.375 33.187C389.485 33.879 390.583 34.5857 391.669 35.3073L392.776 33.6413L393.882 31.9752C392.764 31.2323 391.633 30.505 390.492 29.7931L389.434 31.4901ZM396.05 35.885L394.895 37.5181C395.962 38.2725 397.017 39.0421 398.06 39.8274L399.263 38.2297L400.466 36.632C399.391 35.8225 398.304 35.0292 397.204 34.252L396.05 35.885ZM402.403 40.6698L401.152 42.23C402.17 43.0466 403.176 43.879 404.169 44.7275L405.468 43.2068L406.767 41.6861C405.742 40.8106 404.704 39.9518 403.654 39.1095L402.403 40.6698ZM408.444 45.8305L407.098 47.3097C408.06 48.1856 409.01 49.0777 409.947 49.9862L411.339 48.5505L412.732 47.1149C411.764 46.1767 410.784 45.2556 409.79 44.3514L408.444 45.8305ZM414.155 51.371L412.717 52.7612C413.173 53.2321 413.625 53.7071 414.073 54.1864L415.533 52.8196L416.993 51.4528C416.53 50.9578 416.063 50.4671 415.593 49.9808L414.155 51.371ZM415.533 52.8196L414.073 54.1864C414.523 54.6671 414.973 55.15 415.423 55.635L416.889 54.2745L418.355 52.9139C417.901 52.4248 417.447 51.9377 416.993 51.4528L415.533 52.8196ZM419.603 57.2226L418.126 58.571C419.027 59.5582 419.929 60.5538 420.831 61.5575L422.318 60.2207L423.806 58.8839C422.897 57.8725 421.988 56.8692 421.08 55.8741L419.603 57.2226ZM425.022 63.2528L423.525 64.5785C424.401 65.5683 425.278 66.5657 426.155 67.5702L427.661 66.255L429.168 64.9398C428.285 63.9284 427.402 62.9241 426.52 61.9272L425.022 63.2528ZM430.302 69.3004L428.786 70.6055C429.664 71.6244 430.541 72.6503 431.419 73.683L432.943 72.3875L434.467 71.092C433.583 70.053 432.7 69.0207 431.817 67.9952L430.302 69.3004ZM435.536 75.456L434.005 76.7423C434.86 77.761 435.716 78.7859 436.572 79.8168L438.111 78.5391L439.65 77.2614C438.789 76.2248 437.928 75.1941 437.068 74.1696L435.536 75.456ZM440.687 81.6583L439.141 82.9277C439.994 83.966 440.847 85.0101 441.7 86.0599L443.252 84.7985L444.804 83.5372C443.947 82.4822 443.09 81.4327 442.232 80.389L440.687 81.6583ZM445.77 87.9128L444.212 89.1667C445.05 90.2075 445.888 91.2536 446.725 92.3047L448.289 91.0581L449.853 89.8114C449.012 88.7556 448.17 87.7047 447.329 86.659L445.77 87.9128ZM450.809 94.2332L449.24 95.473C450.068 96.5219 450.897 97.5755 451.726 98.6337L453.3 97.4005L454.875 96.1673C454.043 95.1048 453.21 94.0468 452.378 92.9935L450.809 94.2332ZM455.771 100.568L454.191 101.795C455.013 102.853 455.835 103.915 456.657 104.982L458.241 103.76L459.825 102.539C459 101.469 458.175 100.403 457.35 99.3407L455.771 100.568ZM460.712 106.978L459.124 108.193C459.934 109.252 460.744 110.314 461.554 111.38L463.146 110.17L464.739 108.96C463.926 107.891 463.113 106.825 462.301 105.762L460.712 106.978ZM465.576 113.378L463.98 114.583C464.789 115.654 465.597 116.729 466.406 117.807L468.006 116.607L469.606 115.407C468.795 114.326 467.984 113.248 467.172 112.173L465.576 113.378ZM470.43 119.849L468.827 121.045C469.625 122.114 470.422 123.187 471.22 124.263L472.826 123.071L474.433 121.88C473.633 120.802 472.834 119.726 472.034 118.654L470.43 119.849ZM475.222 126.311L473.613 127.498C474.41 128.579 475.207 129.663 476.005 130.75L477.617 129.566L479.23 128.383C478.43 127.294 477.631 126.208 476.832 125.124L475.222 126.311ZM480.003 132.825L478.388 134.005C479.177 135.085 479.966 136.167 480.754 137.252L482.372 136.075L483.989 134.899C483.199 133.813 482.409 132.728 481.618 131.646L480.003 132.825ZM484.74 139.338L483.12 140.511C483.908 141.6 484.697 142.691 485.485 143.784L487.107 142.613L488.729 141.443C487.939 140.349 487.15 139.256 486.36 138.165L484.74 139.338ZM489.464 145.887L487.84 147.054C488.622 148.142 489.404 149.232 490.185 150.323L491.811 149.158L493.437 147.993C492.654 146.901 491.871 145.809 491.088 144.72L489.464 145.887ZM494.158 152.438L492.53 153.6C493.311 154.694 494.093 155.79 494.874 156.887L496.503 155.726L498.132 154.566C497.35 153.468 496.568 152.371 495.785 151.276L494.158 152.438ZM498.84 159.012L497.209 160.17C497.986 161.264 498.763 162.359 499.54 163.455L501.171 162.298L502.803 161.142C502.026 160.045 501.248 158.949 500.47 157.854L498.84 159.012ZM503.502 165.59L501.869 166.745C502.645 167.842 503.421 168.941 504.197 170.04L505.831 168.886L507.465 167.733C506.688 166.633 505.911 165.534 505.135 164.435L503.502 165.59ZM508.155 172.181L506.52 173.333C507.294 174.431 508.068 175.53 508.841 176.629L510.477 175.478L512.112 174.326C511.338 173.227 510.564 172.128 509.79 171.029L508.155 172.181ZM512.797 178.776L511.161 179.926C511.934 181.025 512.707 182.125 513.479 183.225L515.116 182.075L516.752 180.925C515.979 179.825 515.206 178.725 514.433 177.625L512.797 178.776ZM517.434 185.377L515.797 186.526C516.57 187.627 517.343 188.727 518.115 189.827L519.752 188.678L521.389 187.53C520.617 186.429 519.844 185.329 519.071 184.228L517.434 185.377ZM522.067 191.978L520.43 193.127C521.202 194.227 521.973 195.326 522.744 196.425L524.381 195.276L526.018 194.127C525.247 193.029 524.476 191.929 523.705 190.83L522.067 191.978ZM526.701 198.582L525.064 199.731C525.838 200.833 526.611 201.934 527.383 203.034L529.02 201.884L530.657 200.735C529.884 199.635 529.111 198.534 528.338 197.433L526.701 198.582ZM531.337 205.181L529.7 206.331C530.473 207.43 531.245 208.528 532.016 209.625L533.652 208.474L535.288 207.323C534.516 206.227 533.745 205.13 532.973 204.031L531.337 205.181ZM535.98 211.78L534.345 212.932C535.121 214.033 535.896 215.133 536.671 216.231L538.305 215.078L539.939 213.925C539.165 212.827 538.39 211.728 537.615 210.628L535.98 211.78ZM540.628 218.367L538.995 219.522C539.771 220.619 540.547 221.715 541.322 222.809L542.954 221.653L544.586 220.497C543.811 219.404 543.037 218.309 542.261 217.212L540.628 218.367ZM545.294 224.953L543.664 226.111C544.444 227.21 545.224 228.307 546.003 229.402L547.633 228.242L549.262 227.082C548.483 225.988 547.705 224.893 546.925 223.795L545.294 224.953ZM549.968 231.517L548.34 232.679C549.123 233.775 549.905 234.868 550.686 235.959L552.312 234.795L553.938 233.63C553.158 232.541 552.377 231.449 551.596 230.355L549.968 231.517ZM554.672 238.083L553.048 239.25C553.834 240.345 554.621 241.437 555.406 242.525L557.028 241.355L558.65 240.185C557.866 239.098 557.081 238.008 556.296 236.916L554.672 238.083ZM559.381 244.61L557.762 245.783C558.554 246.877 559.346 247.968 560.138 249.056L561.755 247.879L563.372 246.702C562.582 245.617 561.792 244.528 561.001 243.436L559.381 244.61ZM564.14 251.148L562.525 252.328C563.32 253.416 564.115 254.5 564.909 255.58L566.521 254.396L568.132 253.211C567.34 252.134 566.547 251.052 565.754 249.967L564.14 251.148ZM568.898 257.622L567.289 258.81C568.096 259.903 568.903 260.991 569.709 262.075L571.314 260.882L572.919 259.689C572.115 258.608 571.311 257.523 570.506 256.433L568.898 257.622ZM573.73 264.122L572.128 265.32C572.934 266.397 573.739 267.471 574.544 268.539L576.141 267.336L577.739 266.133C576.937 265.068 576.135 263.998 575.331 262.924L573.73 264.122ZM578.565 270.544L576.971 271.752C577.792 272.836 578.613 273.914 579.434 274.988L581.023 273.774L582.612 272.56C581.795 271.49 580.977 270.415 580.158 269.335L578.565 270.544ZM583.477 276.974L581.892 278.194C582.711 279.257 583.529 280.315 584.346 281.368L585.926 280.141L587.506 278.915C586.692 277.867 585.877 276.813 585.062 275.754L583.477 276.974ZM588.418 283.336L586.843 284.57C587.681 285.639 588.518 286.702 589.354 287.758L590.922 286.517L592.491 285.277C591.659 284.225 590.826 283.167 589.992 282.103L588.418 283.336ZM593.421 289.661L591.859 290.91C592.7 291.962 593.54 293.008 594.379 294.048L595.935 292.791L597.491 291.535C596.656 290.501 595.821 289.46 594.984 288.413L593.421 289.661ZM598.499 295.948L596.95 297.213C597.806 298.261 598.661 299.302 599.515 300.336L601.057 299.061L602.598 297.787C601.749 296.76 600.899 295.725 600.048 294.683L598.499 295.948ZM603.609 302.129L602.075 303.413C602.954 304.463 603.832 305.504 604.709 306.537L606.234 305.243L607.758 303.949C606.888 302.923 606.016 301.888 605.142 300.845L603.609 302.129ZM608.86 308.316L607.345 309.621C608.222 310.64 609.099 311.65 609.974 312.652L611.48 311.335L612.986 310.019C612.117 309.025 611.247 308.022 610.376 307.011L608.86 308.316ZM614.158 314.374L612.664 315.703C613.57 316.723 614.476 317.734 615.381 318.734L616.864 317.392L618.347 316.051C617.451 315.059 616.553 314.058 615.653 313.046L614.158 314.374ZM619.562 320.348L618.091 321.703C619.014 322.705 619.935 323.695 620.856 324.674L622.313 323.304L623.77 321.934C622.859 320.965 621.947 319.985 621.033 318.993L619.562 320.348ZM625.109 326.248L623.667 327.633C624.603 328.608 625.537 329.57 626.47 330.52L627.897 329.118L629.324 327.717C628.401 326.778 627.477 325.827 626.552 324.863L625.109 326.248ZM630.744 331.982L629.335 333.401C630.31 334.368 631.282 335.322 632.254 336.261L633.644 334.823L635.034 333.386C634.076 332.459 633.116 331.518 632.154 330.563L630.744 331.982ZM636.533 337.578L635.164 339.035C636.165 339.977 637.165 340.902 638.164 341.811L639.51 340.332L640.857 338.854C639.875 337.959 638.89 337.048 637.903 336.12L636.533 337.578ZM642.526 343.033L641.205 344.534C642.217 345.425 643.227 346.298 644.236 347.154L645.53 345.629L646.824 344.104C645.834 343.264 644.842 342.407 643.847 341.532L642.526 343.033ZM648.677 348.246L647.415 349.797C648.476 350.661 649.536 351.505 650.593 352.328L651.822 350.75L653.05 349.172C652.016 348.367 650.98 347.541 649.94 346.695L648.677 348.246ZM655.018 353.178L653.828 354.785C654.945 355.612 656.06 356.416 657.172 357.194L658.319 355.556L659.466 353.917C658.384 353.16 657.298 352.377 656.209 351.571L655.018 353.178ZM661.603 357.786L660.504 359.457C661.676 360.228 662.846 360.971 664.014 361.685L665.057 359.979L666.101 358.273C664.972 357.583 663.839 356.863 662.703 356.115L661.603 357.786ZM668.508 362.008L667.526 363.75C668.741 364.435 669.953 365.087 671.163 365.707L672.074 363.926L672.986 362.146C671.825 361.552 670.66 360.925 669.49 360.266L668.508 362.008ZM675.698 365.683L674.867 367.502C676.134 368.081 677.398 368.622 678.66 369.124L679.4 367.266L680.14 365.408C678.942 364.931 677.738 364.416 676.529 363.863L675.698 365.683ZM683.19 368.657L682.555 370.553C683.88 370.997 685.202 371.397 686.521 371.751L687.039 369.819L687.557 367.887C686.32 367.555 685.076 367.18 683.826 366.761L683.19 368.657ZM690.97 370.733L690.585 372.695C691.26 372.828 691.935 372.948 692.609 373.056L692.924 371.081L693.239 369.105C692.613 369.006 691.985 368.894 691.355 368.77L690.97 370.733Z" fill="black"/>
</svg>
