<svg width="96" height="217" viewBox="0 0 96 217" fill="none" xmlns="http://www.w3.org/2000/svg">
<path d="M0 207.534L15.0064 216.183L14.9936 198.863L0 207.534ZM85.5 134.034L84.1308 133.422V133.422L85.5 134.034ZM5.84911 207.517L5.8601 209.017C7.19126 209.007 8.48961 208.992 9.75674 208.97L9.73078 207.47L9.70483 205.971C8.44972 205.992 7.16158 206.007 5.83812 206.017L5.84911 207.517ZM13.6115 207.375L13.6607 208.874C14.9986 208.83 16.3012 208.775 17.5708 208.704L17.4875 207.206L17.4043 205.709C16.1607 205.778 14.881 205.833 13.5622 205.876L13.6115 207.375ZM21.3526 206.933L21.4835 208.427C22.8261 208.31 24.1319 208.17 25.4042 208.002L25.2086 206.515L25.013 205.028C23.7887 205.189 22.5264 205.325 21.2217 205.439L21.3526 206.933ZM29.0496 205.902L29.3302 207.376C30.6601 207.122 31.9542 206.83 33.2168 206.493L32.8298 205.044L32.4429 203.595C31.2566 203.911 30.0338 204.188 28.7689 204.429L29.0496 205.902ZM36.5322 203.884L37.0446 205.294C38.312 204.833 39.5481 204.316 40.7584 203.735L40.1095 202.383L39.4606 201.031C38.3428 201.567 37.1979 202.046 36.0199 202.474L36.5322 203.884ZM43.5156 200.528L44.2998 201.806C45.4267 201.115 46.5318 200.36 47.6204 199.534L46.714 198.339L45.8075 197.144C44.7959 197.911 43.7723 198.611 42.7313 199.249L43.5156 200.528ZM49.7039 195.849L50.7128 196.959C51.6687 196.09 52.6145 195.161 53.5541 194.167L52.4644 193.137L51.3747 192.106C50.4838 193.048 49.5918 193.924 48.6949 194.739L49.7039 195.849ZM55.0346 190.238L56.1865 191.198C57.0051 190.217 57.822 189.183 58.6398 188.094L57.4405 187.193L56.2412 186.293C55.4517 187.344 54.6664 188.337 53.8827 189.277L55.0346 190.238ZM59.7049 184.041L60.9404 184.891C61.661 183.845 62.3846 182.754 63.113 181.616L61.8497 180.807L60.5865 179.998C59.8749 181.11 59.1697 182.173 58.4694 183.19L59.7049 184.041ZM63.8955 177.511L65.1803 178.285C65.8354 177.198 66.4956 176.072 67.1624 174.908L65.8606 174.163L64.5589 173.417C63.9024 174.564 63.2534 175.67 62.6106 176.737L63.8955 177.511ZM67.7618 170.767L69.077 171.489C69.6914 170.368 70.312 169.214 70.9398 168.027L69.6136 167.326L68.2874 166.625C67.6663 167.8 67.0529 168.94 66.4465 170.046L67.7618 170.767ZM71.3929 163.905L72.7278 164.59C73.3054 163.462 73.8897 162.307 74.4811 161.122L73.139 160.452L71.7969 159.782C71.2099 160.958 70.6305 162.104 70.058 163.221L71.3929 163.905ZM74.8659 156.951L76.214 157.609C76.7711 156.467 77.3349 155.3 77.9058 154.106L76.5527 153.459L75.1997 152.812C74.6318 153.998 74.0713 155.159 73.5178 156.293L74.8659 156.951ZM78.2094 149.967L79.5666 150.606C80.1143 149.442 80.6688 148.255 81.2304 147.044L79.8697 146.413L78.5089 145.782C77.9495 146.988 77.3974 148.17 76.8522 149.329L78.2094 149.967ZM81.4786 142.923L82.8423 143.548C83.3755 142.384 83.9153 141.199 84.4619 139.994L83.0957 139.374L81.7295 138.755C81.1845 139.957 80.6464 141.138 80.115 142.298L81.4786 142.923ZM84.6887 135.844L86.0569 136.459C86.326 135.86 86.5968 135.256 86.8692 134.647L85.5 134.034L84.1308 133.422C83.8589 134.029 83.5888 134.632 83.3204 135.229L84.6887 135.844ZM85.5 134.034L86.8692 134.647C87.1477 134.024 87.4184 133.403 87.6814 132.782L86.3001 132.197L84.9189 131.612C84.6638 132.214 84.4011 132.817 84.1308 133.422L85.5 134.034ZM87.7641 128.537L89.1677 129.066C89.6438 127.803 90.0887 126.543 90.5036 125.287L89.0793 124.817L87.655 124.346C87.2531 125.563 86.822 126.784 86.3604 128.008L87.7641 128.537ZM90.2347 121.057L91.6775 121.467C92.0475 120.166 92.386 118.87 92.6943 117.579L91.2353 117.231L89.7763 116.883C89.4779 118.132 89.1502 119.387 88.792 120.646L90.2347 121.057ZM92.0648 113.397L93.5373 113.683C93.7953 112.354 94.0221 111.03 94.2192 109.713L92.7357 109.491L91.2522 109.269C91.0615 110.544 90.842 111.825 90.5923 113.111L92.0648 113.397ZM93.2337 105.595L94.7253 105.753C94.8678 104.411 94.9804 103.076 95.0645 101.749L93.5675 101.654L92.0705 101.559C91.9891 102.845 91.8801 104.137 91.7421 105.436L93.2337 105.595ZM93.7346 97.7163L95.2342 97.7487C95.2632 96.4074 95.2642 95.0744 95.2388 93.7501L93.7391 93.7788L92.2394 93.8075C92.264 95.0918 92.263 96.384 92.2349 97.6838L93.7346 97.7163ZM93.5844 89.829L95.0818 89.7407C95.003 88.4042 94.8984 87.0772 94.7699 85.7603L93.277 85.906L91.784 86.0516C91.9089 87.3313 92.0105 88.62 92.087 89.9174L93.5844 89.829ZM92.8202 81.9829L94.3066 81.782C94.1271 80.4531 93.9243 79.1352 93.7004 77.8287L92.2219 78.0821L90.7435 78.3355C90.9616 79.6081 91.159 80.891 91.3337 82.1838L92.8202 81.9829ZM91.4919 74.2183L92.9609 73.9152C92.6895 72.5997 92.3979 71.2967 92.0883 70.0066L90.6297 70.3567L89.1711 70.7069C89.4736 71.9667 89.7581 73.2384 90.0228 74.5213L91.4919 74.2183ZM89.6505 66.5358L91.0978 66.1417C90.7471 64.8539 90.3799 63.5801 89.9983 62.3207L88.5627 62.7557L87.1272 63.1907C87.5009 64.424 87.8602 65.6705 88.2032 66.9299L89.6505 66.5358ZM87.3641 58.9838L88.7876 58.5107C88.3653 57.2402 87.9302 55.9857 87.4847 54.7477L86.0733 55.2556L84.6619 55.7635C85.0995 56.9795 85.5266 58.2108 85.9406 59.4568L87.3641 58.9838ZM84.7006 51.5739L86.1002 51.0343C85.6164 49.7794 85.124 48.5431 84.6257 47.3259L83.2375 47.8942L81.8493 48.4625C82.3403 49.6618 82.8251 50.879 83.301 52.1135L84.7006 51.5739ZM81.7065 44.2517L83.084 43.6581C82.5539 42.428 82.0205 41.2194 81.487 40.0332L80.119 40.6485L78.751 41.2638C79.2787 42.437 79.8057 43.631 80.3289 44.8453L81.7065 44.2517ZM78.4823 37.0745L79.8421 36.4414C79.2713 35.2153 78.704 34.0159 78.1443 32.8443L76.7908 33.4908L75.4373 34.1374C75.9936 35.302 76.5566 36.4923 77.1224 37.7076L78.4823 37.0745ZM75.0741 29.9279L76.4238 29.2734C75.8333 28.0558 75.2545 26.868 74.6973 25.7209L73.3481 26.3763L71.9988 27.0318C72.5587 28.1843 73.1341 29.365 73.7245 30.5825L75.0741 29.9279ZM71.633 22.8222L72.9867 22.1759C72.397 20.941 71.8409 19.7572 71.3253 18.6248L69.9602 19.2464L68.595 19.8679C69.1206 21.0222 69.685 22.2235 70.2794 23.4685L71.633 22.8222ZM68.385 15.626L69.7729 15.057C69.2457 13.7708 68.8014 12.581 68.4515 11.4872L67.0228 11.9442L65.5941 12.4012C65.9749 13.5916 66.4494 14.8588 66.997 16.1949L68.385 15.626ZM66.1272 8.09083L67.6172 7.9186C67.4582 6.54304 67.6102 5.59879 67.948 4.95248L66.6186 4.25773L65.2892 3.56298C64.5672 4.94461 64.441 6.56711 64.6371 8.26306L66.1272 8.09083ZM69.6681 1.974L70.0985 3.41092C70.9518 3.1553 72.0772 3.0037 73.5369 2.99998L73.5331 1.49998L73.5292 -1.14441e-05C71.8862 0.00417972 70.4535 0.172869 69.2376 0.537086L69.6681 1.974ZM77.4494 1.75196L77.2745 3.24173C77.905 3.31576 78.5693 3.40713 79.2686 3.51631L79.5 2.03427L79.7314 0.552226C78.9983 0.437762 78.2962 0.341081 77.6243 0.262195L77.4494 1.75196Z" fill="black"/>
</svg>
