<svg width="694" height="359" viewBox="0 0 694 359" fill="none" xmlns="http://www.w3.org/2000/svg">
<path d="M0 6.32066L16.58 22.3967L22.2122 7.15256e-06L0 6.32066ZM351.435 119.108L349.975 120.475L351.435 119.108ZM5.80872 7.70663L5.37727 9.65954C6.65702 9.94227 7.96635 10.2183 9.30422 10.4883L9.69991 8.52788L10.0956 6.56742C8.77976 6.30183 7.49434 6.0308 6.24017 5.75373L5.80872 7.70663ZM13.6768 9.29782L13.3112 11.2641C14.597 11.5032 15.9066 11.7377 17.2392 11.9682L17.5801 9.9975L17.921 8.02678C16.6037 7.79887 15.3106 7.56728 14.0423 7.33151L13.6768 9.29782ZM21.5695 10.6651L21.2496 12.6394C22.5449 12.8493 23.8601 13.0562 25.1945 13.2604L25.4971 11.2834L25.7997 9.30645C24.476 9.10385 23.1724 8.89881 21.8894 8.6909L21.5695 10.6651ZM29.478 11.8771L29.1902 13.8563C30.4985 14.0466 31.8237 14.2349 33.1654 14.4215L33.441 12.4406L33.7166 10.4597C32.3824 10.2741 31.0654 10.0869 29.7659 9.89794L29.478 11.8771ZM37.4028 12.9811L37.1375 14.9634C38.4608 15.1405 39.7991 15.3165 41.1516 15.4917L41.4085 13.5082L41.6653 11.5248C40.318 11.3503 38.9854 11.1751 37.6682 10.9987L37.4028 12.9811ZM45.3466 14.0111L45.0966 15.9954C46.4246 16.1627 47.7655 16.3296 49.1188 16.4962L49.3633 14.5112L49.6077 12.5262C48.2576 12.36 46.9205 12.1936 45.5966 12.0268L45.3466 14.0111ZM53.3114 14.9929L53.0713 16.9784C54.3883 17.1377 55.7164 17.2971 57.0551 17.4568L57.292 15.4708L57.5289 13.4849C56.192 13.3254 54.8661 13.1663 53.5516 13.0073L53.3114 14.9929ZM61.2979 15.9463L61.0632 17.9325C62.3701 18.0869 63.6865 18.2419 65.012 18.3976L65.2454 16.4113L65.4788 14.4249C64.1538 14.2693 62.8383 14.1144 61.5326 13.9601L61.2979 15.9463ZM69.2489 16.881L69.016 18.8674C70.3322 19.0217 71.6568 19.1769 72.9897 19.3333L73.2228 17.3469L73.4559 15.3606C72.1227 15.2041 70.7978 15.0488 69.4817 14.8946L69.2489 16.881ZM77.1895 17.8133L76.9555 19.7996C78.2852 19.9562 79.6226 20.1143 80.9674 20.2738L81.203 18.2878L81.4387 16.3017C80.0926 16.142 78.7541 15.9838 77.4236 15.827L77.1895 17.8133ZM85.1567 18.7591L84.9189 20.7449C86.2366 20.9027 87.561 21.0622 88.8918 21.2235L89.1325 19.238L89.3731 17.2526C88.0403 17.091 86.714 16.9313 85.3946 16.7733L85.1567 18.7591ZM93.1459 19.7279L92.9019 21.7129C94.2095 21.8737 95.523 22.0363 96.842 22.2011L97.0898 20.2165L97.3377 18.2319C96.0159 18.0668 94.6999 17.9039 93.3899 17.7428L93.1459 19.7279ZM101.068 20.7176L100.815 22.7016C102.142 22.8703 103.474 23.0412 104.812 23.2145L105.069 21.2311L105.326 19.2476C103.985 19.0739 102.65 18.9026 101.32 18.7336L101.068 20.7176ZM109.016 21.7478L108.753 23.7305C110.072 23.905 111.395 24.0819 112.723 24.2614L112.991 22.2794L113.259 20.2974C111.927 20.1174 110.6 19.94 109.278 19.7651L109.016 21.7478ZM116.983 22.8255L116.709 24.8066C118.018 24.9878 119.331 25.1717 120.648 25.3583L120.929 23.3781L121.21 21.3979C119.888 21.2106 118.571 21.0261 117.257 20.8444L116.983 22.8255ZM124.898 23.9478L124.611 25.927C125.933 26.1192 127.259 26.3143 128.589 26.5126L128.884 24.5345L129.179 22.5564C127.844 22.3573 126.513 22.1615 125.186 21.9686L124.898 23.9478ZM132.826 25.1302L132.523 27.1072C133.838 27.3085 135.155 27.5129 136.475 27.7206L136.786 25.745L137.097 23.7693C135.771 23.5606 134.448 23.3554 133.128 23.1533L132.826 25.1302ZM140.764 26.3795L140.444 28.3539C141.751 28.5653 143.061 28.78 144.372 28.9983L144.701 27.0254L145.029 25.0525C143.711 24.8333 142.396 24.6176 141.083 24.4052L140.764 26.3795ZM148.651 27.692L148.313 29.6633C149.629 29.8886 150.947 30.1174 152.266 30.35L152.614 28.3804L152.961 26.4107C151.634 26.177 150.31 25.947 148.988 25.7207L148.651 27.692ZM156.548 29.084L156.191 31.0519C157.499 31.2891 158.808 31.5302 160.119 31.7751L160.486 29.8092L160.853 27.8432C159.536 27.5969 158.22 27.3546 156.905 27.1161L156.548 29.084ZM164.433 30.5579L164.055 32.5218C165.36 32.7731 166.666 33.0284 167.973 33.2878L168.363 31.326L168.752 29.3643C167.437 29.1034 166.123 28.8467 164.811 28.594L164.433 30.5579ZM172.286 32.1164L171.886 34.0758C173.191 34.3427 174.496 34.6138 175.803 34.8892L176.216 32.9322L176.628 30.9752C175.313 30.6981 174 30.4254 172.687 30.1569L172.286 32.1164ZM180.136 33.7713L179.711 35.7257C181.009 36.0078 182.308 36.2942 183.607 36.5852L184.044 34.6336L184.481 32.682C183.174 32.3891 181.867 32.1008 180.561 31.8169L180.136 33.7713ZM187.954 35.5233L187.504 37.4719C188.801 37.7717 190.099 38.0762 191.397 38.3854L191.86 36.4398L192.324 34.4943C191.017 34.1829 189.71 33.8764 188.404 33.5746L187.954 35.5233ZM195.75 37.381L195.273 39.3232C196.564 39.6406 197.856 39.9629 199.147 40.2901L199.638 38.3514L200.13 36.4127C198.829 36.083 197.528 35.7585 196.227 35.4388L195.75 37.381ZM203.525 39.3518L203.019 41.2867C204.304 41.6227 205.589 41.9638 206.873 42.31L207.394 40.379L207.915 38.448C206.62 38.099 205.326 37.7554 204.031 37.4168L203.525 39.3518ZM211.258 41.4373L210.722 43.3642C212.004 43.7208 213.286 44.0827 214.566 44.45L215.117 42.5276L215.669 40.6051C214.378 40.2348 213.087 39.87 211.794 39.5105L211.258 41.4373ZM218.964 43.6487L218.396 45.5664C219.671 45.9438 220.944 46.3266 222.216 46.7151L222.801 44.8023L223.385 42.8895C222.102 42.4977 220.817 42.1115 219.532 41.731L218.964 43.6487ZM226.629 45.9899L226.028 47.8974C227.296 48.2971 228.563 48.7025 229.828 49.1137L230.446 47.2117L231.064 45.3097C229.788 44.8946 228.51 44.4856 227.23 44.0823L226.629 45.9899ZM234.251 48.4682L233.615 50.3643C234.875 50.7871 236.134 51.2159 237.39 51.6507L238.044 49.7607L238.698 47.8707C237.43 47.4317 236.159 46.9988 234.887 46.572L234.251 48.4682ZM241.825 51.0901L241.152 52.9735C242.404 53.4207 243.653 53.8741 244.9 54.3337L245.592 52.4572L246.284 50.5806C245.024 50.1162 243.762 49.6583 242.497 49.2066L241.825 51.0901ZM249.345 53.8625L248.634 55.7318C249.875 56.2042 251.114 56.6831 252.351 57.1684L253.082 55.3068L253.813 53.4452C252.563 52.9545 251.311 52.4706 250.056 51.9932L249.345 53.8625ZM256.805 56.7921L256.054 58.6457C257.285 59.1448 258.513 59.6505 259.739 60.1631L260.511 58.3181L261.282 56.473C260.043 55.9547 258.801 55.4432 257.556 54.9386L256.805 56.7921ZM264.197 59.8853L263.404 61.7213C264.624 62.2481 265.84 62.7818 267.053 63.3225L267.867 61.4959L268.682 59.6693C267.455 59.1221 266.224 58.5821 264.99 58.0492L264.197 59.8853ZM271.518 63.1502L270.682 64.9669C271.887 65.5222 273.09 66.0846 274.288 66.6543L275.147 64.8481L276.005 63.0419C274.792 62.465 273.575 61.8956 272.354 61.3336L271.518 63.1502ZM278.754 66.5913L277.872 68.3865C279.064 68.9719 280.252 69.5647 281.436 70.1651L282.341 68.3815L283.246 66.5978C282.046 65.9895 280.843 65.389 279.635 64.796L278.754 66.5913ZM285.902 70.2175L284.974 71.9891C286.149 72.6047 287.319 73.2281 288.485 73.8592L289.437 72.1004L290.389 70.3416C289.207 69.7018 288.021 69.07 286.83 68.446L285.902 70.2175ZM292.949 74.0333L291.973 75.7788C293.131 76.4265 294.283 77.0822 295.431 77.7459L296.432 76.0145L297.434 74.2831C296.269 73.6098 295.1 72.9448 293.926 72.2879L292.949 74.0333ZM299.886 78.0445L298.86 79.7612C299.998 80.4416 301.131 81.1302 302.259 81.8271L303.31 80.1257L304.362 78.4244C303.217 77.717 302.067 77.0182 300.912 76.3277L299.886 78.0445ZM306.703 82.2578L305.626 83.9431C306.743 84.6568 307.855 85.379 308.96 86.1096L310.063 84.4411L311.166 82.7725C310.043 82.0304 308.914 81.2971 307.78 80.5725L306.703 82.2578ZM313.388 86.6761L312.259 88.3271C313.353 89.0749 314.441 89.8312 315.523 90.5964L316.678 88.9636L317.833 87.3308C316.733 86.5533 315.628 85.7847 314.517 85.0251L313.388 86.6761ZM319.93 91.3045L318.749 92.9183C319.818 93.7006 320.88 94.4919 321.936 95.2922L323.144 93.6982L324.352 92.1043C323.278 91.2906 322.198 90.4861 321.112 89.6908L319.93 91.3045ZM326.315 96.1439L325.08 97.7172C326.122 98.5346 327.157 99.3612 328.185 100.197L329.447 98.6449L330.708 97.0929C329.662 96.2427 328.609 95.4019 327.55 94.5705L326.315 96.1439ZM332.537 101.201L331.248 102.731C332.259 103.582 333.263 104.443 334.259 105.312L335.574 103.806L336.889 102.299C335.875 101.413 334.853 100.538 333.825 99.6717L332.537 101.201ZM338.569 106.467L337.228 107.95C338.21 108.839 339.185 109.737 340.152 110.644L341.521 109.186L342.889 107.727C341.904 106.803 340.911 105.888 339.911 104.984L338.569 106.467ZM344.413 111.95L343.018 113.383C343.965 114.304 344.904 115.235 345.836 116.175L347.257 114.768L348.678 113.361C347.729 112.403 346.772 111.455 345.808 110.516L344.413 111.95ZM350.054 117.646L348.607 119.027C349.065 119.507 349.521 119.989 349.975 120.475L351.435 119.108L352.895 117.741C352.433 117.247 351.968 116.755 351.501 116.266L350.054 117.646ZM351.435 119.108L349.975 120.475C350.422 120.953 350.871 121.431 351.321 121.909L352.778 120.539L354.235 119.169C353.787 118.693 353.34 118.217 352.895 117.741L351.435 119.108ZM355.49 123.409L354.04 124.786C354.952 125.746 355.869 126.708 356.792 127.671L358.236 126.287L359.68 124.904C358.761 123.945 357.848 122.988 356.941 122.032L355.49 123.409ZM361.007 129.166L359.569 130.556C360.481 131.499 361.398 132.443 362.32 133.389L363.752 131.992L365.184 130.596C364.266 129.655 363.353 128.714 362.445 127.775L361.007 129.166ZM366.527 134.826L365.102 136.228C366.034 137.176 366.971 138.124 367.912 139.073L369.332 137.665L370.752 136.256C369.814 135.311 368.881 134.366 367.953 133.423L366.527 134.826ZM372.128 140.471L370.713 141.885C371.645 142.817 372.581 143.749 373.522 144.682L374.93 143.262L376.339 141.843C375.402 140.913 374.47 139.985 373.542 139.057L372.128 140.471ZM377.759 146.058L376.356 147.483C377.303 148.415 378.255 149.348 379.21 150.282L380.608 148.851L382.005 147.42C381.053 146.49 380.106 145.561 379.162 144.633L377.759 146.058ZM383.437 151.603L382.044 153.039C382.993 153.959 383.946 154.879 384.902 155.8L386.289 154.359L387.676 152.917C386.723 152 385.774 151.084 384.829 150.167L383.437 151.603ZM389.164 157.116L387.783 158.562C388.739 159.475 389.699 160.389 390.663 161.303L392.039 159.852L393.415 158.401C392.455 157.49 391.499 156.58 390.546 155.669L389.164 157.116ZM394.914 162.57L393.543 164.026C394.507 164.934 395.474 165.841 396.444 166.749L397.81 165.288L399.176 163.828C398.209 162.923 397.246 162.019 396.286 161.114L394.914 162.57ZM400.726 168.007L399.365 169.472C400.331 170.37 401.3 171.267 402.273 172.165L403.629 170.695L404.985 169.225C404.016 168.331 403.05 167.436 402.087 166.542L400.726 168.007ZM406.546 173.378L405.194 174.852C406.171 175.747 407.151 176.643 408.134 177.538L409.481 176.059L410.827 174.58C409.848 173.688 408.871 172.796 407.897 171.903L406.546 173.378ZM412.427 178.734L411.085 180.217C412.064 181.102 413.045 181.987 414.029 182.871L415.366 181.384L416.703 179.896C415.722 179.015 414.744 178.133 413.769 177.251L412.427 178.734ZM418.32 184.031L416.988 185.523C417.977 186.406 418.969 187.289 419.963 188.171L421.29 186.675L422.618 185.179C421.627 184.3 420.638 183.42 419.653 182.539L418.32 184.031ZM424.265 189.306L422.942 190.806C423.933 191.68 424.926 192.554 425.922 193.426L427.24 191.922L428.558 190.418C427.566 189.548 426.575 188.678 425.587 187.806L424.265 189.306ZM430.229 194.534L428.916 196.042C429.916 196.913 430.918 197.783 431.923 198.653L433.231 197.14L434.54 195.628C433.539 194.762 432.54 193.894 431.543 193.026L430.229 194.534ZM436.235 199.732L434.931 201.248C435.934 202.111 436.939 202.973 437.946 203.834L439.245 202.314L440.545 200.793C439.541 199.935 438.539 199.076 437.539 198.216L436.235 199.732ZM442.267 204.889L440.972 206.413C441.982 207.272 442.995 208.129 444.009 208.985L445.299 207.457L446.59 205.929C445.579 205.076 444.569 204.221 443.562 203.365L442.267 204.889ZM448.333 210.012L447.047 211.544C448.062 212.395 449.078 213.245 450.095 214.094L451.376 212.558L452.657 211.022C451.643 210.176 450.63 209.329 449.619 208.48L448.333 210.012ZM454.428 215.097L453.152 216.636C454.172 217.482 455.194 218.327 456.217 219.17L457.489 217.627L458.761 216.083C457.741 215.243 456.722 214.401 455.705 213.557L454.428 215.097ZM460.555 220.146L459.288 221.693C460.313 222.533 461.339 223.371 462.367 224.207L463.629 222.656L464.892 221.105C463.868 220.271 462.844 219.436 461.823 218.599L460.555 220.146ZM466.711 225.157L465.453 226.712C466.483 227.546 467.514 228.377 468.547 229.208L469.8 227.649L471.053 226.09C470.024 225.263 468.996 224.433 467.969 223.602L466.711 225.157ZM472.899 230.133L471.65 231.695C472.686 232.523 473.722 233.349 474.759 234.172L476.003 232.606L477.247 231.04C476.213 230.219 475.18 229.396 474.147 228.571L472.899 230.133ZM479.113 235.068L477.874 236.638C478.914 237.46 479.956 238.279 480.998 239.097L482.233 237.523L483.467 235.949C482.428 235.134 481.389 234.317 480.352 233.498L479.113 235.068ZM485.363 239.97L484.133 241.548C485.179 242.363 486.225 243.175 487.272 243.986L488.496 242.405L489.721 240.824C488.677 240.016 487.634 239.205 486.592 238.393L485.363 239.97ZM491.633 244.826L490.413 246.412C491.466 247.221 492.518 248.029 493.571 248.834L494.786 247.245L496.001 245.656C494.951 244.853 493.902 244.049 492.853 243.241L491.633 244.826ZM497.947 249.653L496.737 251.246C497.793 252.048 498.848 252.847 499.904 253.644L501.109 252.047L502.314 250.451C501.261 249.657 500.209 248.86 499.156 248.061L497.947 249.653ZM504.273 254.426L503.073 256.027C504.138 256.825 505.203 257.62 506.267 258.413L507.462 256.809L508.656 255.205C507.595 254.414 506.533 253.622 505.472 252.826L504.273 254.426ZM510.652 259.176L509.463 260.784C510.529 261.572 511.594 262.357 512.659 263.139L513.843 261.527L515.026 259.915C513.965 259.135 512.903 258.353 511.842 257.568L510.652 259.176ZM517.039 263.866L515.861 265.482C516.937 266.267 518.013 267.049 519.089 267.827L520.262 266.207L521.435 264.587C520.363 263.811 519.29 263.032 518.218 262.25L517.039 263.866ZM523.482 268.53L522.314 270.154C523.389 270.927 524.464 271.696 525.537 272.462L526.699 270.834L527.861 269.206C526.791 268.443 525.72 267.676 524.649 266.906L523.482 268.53ZM529.936 273.135L528.78 274.767C529.867 275.537 530.953 276.303 532.039 277.066L533.189 275.43L534.339 273.794C533.257 273.034 532.175 272.27 531.092 271.503L529.936 273.135ZM536.437 277.704L535.293 279.345C536.377 280.101 537.461 280.853 538.543 281.602L539.681 279.957L540.819 278.313C539.741 277.567 538.661 276.817 537.581 276.064L536.437 277.704ZM542.964 282.22L541.833 283.869C542.93 284.622 544.027 285.372 545.122 286.117L546.247 284.464L547.373 282.81C546.282 282.068 545.189 281.321 544.096 280.571L542.964 282.22ZM549.523 286.684L548.404 288.342C549.503 289.084 550.601 289.821 551.698 290.555L552.81 288.893L553.922 287.231C552.83 286.5 551.737 285.765 550.642 285.026L549.523 286.684ZM556.13 291.105L555.025 292.772C556.133 293.506 557.239 294.236 558.343 294.962L559.442 293.291L560.54 291.62C559.44 290.897 558.339 290.17 557.236 289.438L556.13 291.105ZM562.743 295.451L561.652 297.127C562.772 297.856 563.889 298.58 565.005 299.3L566.089 297.619L567.173 295.938C566.062 295.222 564.949 294.501 563.834 293.775L562.743 295.451ZM569.439 299.769L568.363 301.454C569.48 302.168 570.595 302.876 571.708 303.579L572.777 301.889L573.845 300.198C572.737 299.498 571.628 298.793 570.515 298.083L569.439 299.769ZM576.129 303.996L575.068 305.692C576.204 306.402 577.337 307.107 578.468 307.807L579.52 306.106L580.572 304.405C579.447 303.709 578.32 303.008 577.189 302.301L576.129 303.996ZM582.897 308.183L581.853 309.889C582.979 310.578 584.102 311.261 585.222 311.938L586.257 310.227L587.292 308.515C586.177 307.842 585.06 307.162 583.94 306.477L582.897 308.183ZM589.691 312.291L588.665 314.008C589.811 314.692 590.953 315.37 592.092 316.042L593.109 314.319L594.125 312.597C592.992 311.928 591.856 311.254 590.716 310.574L589.691 312.291ZM596.507 316.311L595.501 318.039C596.658 318.713 597.813 319.381 598.963 320.041L599.959 318.307L600.955 316.573C599.812 315.916 598.664 315.253 597.513 314.583L596.507 316.311ZM603.42 320.281L602.435 322.021C603.589 322.674 604.739 323.32 605.885 323.959L606.859 322.213L607.833 320.466C606.694 319.831 605.552 319.189 604.406 318.54L603.42 320.281ZM610.335 324.136L609.373 325.89C610.55 326.536 611.723 327.174 612.891 327.805L613.841 326.045L614.792 324.285C613.632 323.659 612.467 323.025 611.298 322.383L610.335 324.136ZM617.32 327.908L616.383 329.674C617.563 330.3 618.737 330.918 619.907 331.527L620.831 329.754L621.755 327.98C620.595 327.375 619.429 326.762 618.258 326.141L617.32 327.908ZM624.383 331.586L623.473 333.367C624.657 333.971 625.835 334.567 627.007 335.154L627.902 333.365L628.797 331.576C627.635 330.995 626.466 330.404 625.293 329.805L624.383 331.586ZM631.462 335.126L630.583 336.923C631.793 337.515 632.997 338.098 634.195 338.67L635.057 336.865L635.92 335.061C634.733 334.494 633.54 333.917 632.341 333.33L631.462 335.126ZM638.615 338.544L637.77 340.357C638.992 340.926 640.207 341.484 641.415 342.031L642.241 340.209L643.066 338.388C641.871 337.846 640.669 337.294 639.459 336.731L638.615 338.544ZM645.877 341.833L645.072 343.664C646.284 344.196 647.488 344.717 648.684 345.226L649.467 343.386L650.25 341.546C649.069 341.043 647.88 340.528 646.682 340.002L645.877 341.833ZM653.182 344.94L652.423 346.79C653.663 347.299 654.895 347.795 656.117 348.277L656.852 346.417L657.586 344.557C656.381 344.081 655.166 343.592 653.942 343.09L653.182 344.94ZM660.541 347.842L659.835 349.713C661.107 350.194 662.369 350.659 663.619 351.108L664.296 349.226L664.972 347.344C663.742 346.902 662.501 346.444 661.248 345.971L660.541 347.842ZM667.983 350.516L667.339 352.409C668.641 352.852 669.929 353.276 671.206 353.682L671.812 351.777L672.419 349.871C671.169 349.473 669.904 349.056 668.627 348.622L667.983 350.516ZM675.576 352.933L675.009 354.851C676.319 355.238 677.615 355.605 678.896 355.951L679.417 354.02L679.939 352.09C678.69 351.752 677.424 351.394 676.143 351.015L675.576 352.933ZM683.253 355.005L682.781 356.948C684.108 357.27 685.418 357.568 686.711 357.842L687.125 355.886L687.54 353.929C686.287 353.664 685.015 353.374 683.724 353.061L683.253 355.005ZM691.021 356.645L690.672 358.614C691.322 358.73 691.968 358.839 692.609 358.941L692.924 356.966L693.239 354.991C692.621 354.893 691.999 354.788 691.371 354.676L691.021 356.645Z" fill="black"/>
</svg>
