<svg width="149" height="150" viewBox="0 0 149 150" fill="none" xmlns="http://www.w3.org/2000/svg">
<path d="M0 141.173L14.9449 149.928L15.0545 132.608L0 141.173ZM98 89.1736L96.6081 88.6144L98 89.1736ZM5.9959 141.285L5.941 142.784C7.27913 142.833 8.59316 142.897 9.88419 142.973L9.97256 141.475L10.0609 139.978C8.74899 139.901 7.41261 139.835 6.0508 139.786L5.9959 141.285ZM13.9453 141.751L13.827 143.246C15.1662 143.352 16.4803 143.469 17.7705 143.593L17.9141 142.1L18.0576 140.606C16.7527 140.481 15.4218 140.363 14.0636 140.255L13.9453 141.751ZM21.8792 142.508L21.7166 143.999C23.0592 144.145 24.3754 144.296 25.6678 144.447L25.8415 142.957L26.0151 141.467C24.7188 141.316 23.3946 141.164 22.0418 141.017L21.8792 142.508ZM29.8023 143.422L29.6279 144.912C30.9775 145.07 32.302 145.222 33.6015 145.364L33.7635 143.872L33.9254 142.381C32.6383 142.241 31.3234 142.09 29.9767 141.932L29.8023 143.422ZM37.7266 144.268L37.5939 145.762C38.9565 145.883 40.2946 145.984 41.6099 146.056L41.6923 144.558L41.7747 143.06C40.4998 142.99 39.1959 142.892 37.8594 142.774L37.7266 144.268ZM45.6801 144.681L45.6747 146.181C47.0598 146.186 48.4228 146.148 49.7662 146.056L49.6636 144.56L49.5611 143.063C48.2989 143.15 47.0085 143.186 45.6855 143.181L45.6801 144.681ZM53.6149 144.109L53.8573 145.589C55.2266 145.365 56.5774 145.07 57.9126 144.691L57.5037 143.248L57.0947 141.805C55.8766 142.15 54.6375 142.421 53.3724 142.629L53.6149 144.109ZM61.2602 141.926L61.8465 143.307C63.1013 142.774 64.3413 142.155 65.5696 141.44L64.8152 140.144L64.0608 138.847C62.9408 139.499 61.8131 140.062 60.6739 140.546L61.2602 141.926ZM68.1265 137.947L69.0248 139.149C70.0924 138.35 71.1516 137.472 72.2051 136.507L71.192 135.401L70.1789 134.294C69.1952 135.195 68.2124 136.01 67.2282 136.746L68.1265 137.947ZM74.0172 132.582L75.1183 133.601C76.0102 132.637 76.8997 131.606 77.7885 130.504L76.6211 129.562L75.4538 128.62C74.6048 129.672 73.7594 130.652 72.9162 131.563L74.0172 132.582ZM79.0305 126.397L80.2479 127.273C81.0076 126.218 81.7682 125.108 82.5307 123.942L81.2752 123.121L80.0196 122.3C79.2803 123.431 78.5451 124.504 77.8132 125.52L79.0305 126.397ZM83.3844 119.755L84.6696 120.528C85.3418 119.412 86.0163 118.249 86.6938 117.039L85.3851 116.306L84.0764 115.573C83.4132 116.757 82.7544 117.893 82.0992 118.982L83.3844 119.755ZM87.301 112.774L88.6287 113.472C89.2313 112.325 89.8368 111.141 90.4458 109.918L89.1029 109.249L87.7601 108.581C87.1605 109.786 86.5651 110.95 85.9734 112.075L87.301 112.774ZM90.8366 105.679L92.192 106.322C92.758 105.128 93.3274 103.9 93.9004 102.636L92.5343 102.017L91.1683 101.397C90.6019 102.646 90.0397 103.858 89.4812 105.037L90.8366 105.679ZM94.1324 98.4237L95.5072 99.0237C96.0324 97.8202 96.5609 96.5873 97.0929 95.3241L95.7105 94.7419L94.3281 94.1596C93.8009 95.4114 93.2775 96.6326 92.7576 97.8237L94.1324 98.4237ZM97.2316 91.0717L98.6204 91.6383C98.8767 91.0102 99.1338 90.375 99.3919 89.7328L98 89.1736L96.6081 88.6144C96.3521 89.2517 96.0969 89.8819 95.8427 90.5051L97.2316 91.0717ZM98 89.1736L99.3919 89.7328C99.6437 89.106 99.893 88.4833 100.14 87.8649L98.7464 87.3092L97.3532 86.7534C97.1074 87.3695 96.8591 87.9898 96.6081 88.6144L98 89.1736ZM100.193 83.6562L101.589 84.205C102.062 83.0017 102.525 81.8151 102.978 80.645L101.579 80.1034L100.18 79.5619C99.7291 80.7272 99.2681 81.909 98.797 83.1075L100.193 83.6562ZM102.987 76.4375L104.389 76.9713C104.859 75.7353 105.319 74.5185 105.767 73.3207L104.362 72.795L102.957 72.2694C102.511 73.4617 102.054 74.6731 101.585 75.9037L102.987 76.4375ZM105.686 69.2234L107.094 69.7406C107.56 68.4736 108.012 67.2289 108.453 66.0061L107.041 65.4981L105.63 64.9901C105.192 66.2066 104.742 67.4452 104.278 68.7061L105.686 69.2234ZM108.321 61.9045L109.736 62.403C110.183 61.1344 110.616 59.8908 111.035 58.6716L109.617 58.1835L108.199 57.6955C107.782 58.9076 107.351 60.1443 106.906 61.406L108.321 61.9045ZM110.855 54.5413L112.277 55.0185C112.703 53.7487 113.114 52.5072 113.51 51.2936L112.084 50.8283L110.658 50.363C110.264 51.5686 109.856 52.8022 109.433 54.0641L110.855 54.5413ZM113.262 47.1628L114.692 47.6155C115.099 46.3304 115.488 45.0789 115.861 43.8602L114.427 43.4213L112.993 42.9825C112.623 44.1919 112.236 45.4342 111.832 46.7101L113.262 47.1628ZM115.524 39.7712L116.962 40.1955C117.349 38.8834 117.716 37.6127 118.063 36.3824L116.62 35.9747L115.176 35.567C114.832 36.7861 114.469 38.0458 114.085 39.347L115.524 39.7712ZM117.647 32.252L119.096 32.642C119.444 31.3495 119.769 30.1067 120.074 28.9119L118.62 28.5412L117.167 28.1705C116.866 29.3523 116.543 30.5822 116.199 31.8619L117.647 32.252ZM119.563 24.7296L121.022 25.0784C121.342 23.7365 121.635 22.4649 121.902 21.2606L120.438 20.9357L118.973 20.6108C118.709 21.7993 118.421 23.0549 118.104 24.3807L119.563 24.7296ZM121.244 17.1404L122.714 17.439C122.995 16.0571 123.239 14.7848 123.454 13.6153L121.979 13.3441L120.504 13.073C120.292 14.2257 120.051 15.4796 119.775 16.8417L121.244 17.1404ZM122.644 9.53896L124.124 9.78598C124.379 8.25559 124.574 7.02467 124.753 5.98719L123.274 5.73236L121.796 5.47754C121.617 6.5179 121.413 7.80452 121.165 9.29194L122.644 9.53896ZM124.303 1.98539L125.528 2.85148C125.54 2.83349 125.478 2.92172 125.33 2.97388C125.203 3.0188 125.149 2.98679 125.265 3.00887C125.388 3.03227 125.592 3.09504 125.923 3.23586C126.248 3.37391 126.635 3.56078 127.118 3.80178L127.788 2.45948L128.457 1.11718C127.54 0.659508 126.624 0.214119 125.828 0.0620952C125.391 -0.0212343 124.869 -0.0441685 124.334 0.144115C123.779 0.339645 123.371 0.705532 123.078 1.11929L124.303 1.98539ZM131.288 4.16671L130.665 5.53101C131.723 6.01465 132.939 6.53383 134.338 7.06284L134.869 5.65975L135.399 4.25666C134.071 3.75437 132.917 3.26182 131.912 2.80242L131.288 4.16671ZM138.527 6.91153L138.084 8.34483C139.255 8.70621 140.521 9.06218 141.89 9.40482L142.254 7.94972L142.618 6.49462C141.302 6.16509 140.088 5.82365 138.969 5.47824L138.527 6.91153ZM146.038 8.80126L145.742 10.2718C146.388 10.4016 147.052 10.5279 147.736 10.6502L148 9.17361L148.264 7.69702C147.601 7.57853 146.958 7.45624 146.334 7.33072L146.038 8.80126Z" fill="black"/>
</svg>
