<svg width="728" height="346" viewBox="0 0 728 346" fill="none" xmlns="http://www.w3.org/2000/svg">
<path d="M0 126.279L18.3706 140.274L21.3052 117.367L0 126.279ZM329.097 15.4438L330.166 13.753L329.097 15.4438ZM5.99317 126.764L5.9644 128.764C7.32717 128.784 8.70916 128.748 10.1094 128.661L9.98485 126.665L9.86028 124.669C8.55641 124.75 7.27685 124.783 6.02193 124.765L5.99317 126.764ZM14.0326 126.272L14.2911 128.255C15.6216 128.081 16.9677 127.866 18.3286 127.609L17.9584 125.644L17.5882 123.678C16.2971 123.922 15.0256 124.125 13.774 124.288L14.0326 126.272ZM21.9401 124.788L22.4077 126.733C23.7043 126.421 25.0139 126.075 26.3359 125.698L25.7872 123.775L25.2385 121.852C23.9672 122.214 22.7118 122.545 21.4725 122.843L21.9401 124.788ZM29.6649 122.589L30.2845 124.49C31.5566 124.076 32.8399 123.634 34.1338 123.167L33.454 121.286L32.7743 119.405C31.5181 119.859 30.275 120.286 29.0454 120.687L29.6649 122.589ZM37.2172 119.865L37.9492 121.726C39.207 121.231 40.4746 120.714 41.7515 120.175L40.9738 118.332L40.1961 116.49C38.9479 117.016 37.7109 117.521 36.4853 118.003L37.2172 119.865ZM44.6268 116.743L45.4436 118.569C46.6829 118.014 47.9306 117.441 49.1866 116.85L48.3346 115.04L47.4826 113.231C46.2488 113.812 45.0245 114.374 43.8099 114.918L44.6268 116.743ZM51.924 113.313L52.8061 115.108C54.008 114.517 55.2172 113.911 56.4333 113.29L55.5244 111.509L54.6154 109.727C53.4162 110.339 52.225 110.936 51.042 111.518L51.924 113.313ZM59.1336 109.636L60.0665 111.405C61.2369 110.788 62.4135 110.158 63.5961 109.517L62.6424 107.759L61.6888 106.001C60.5193 106.635 59.3566 107.257 58.2007 107.867L59.1336 109.636ZM66.1895 105.81L67.1618 107.557C68.334 106.905 69.5119 106.242 70.6953 105.569L69.7065 103.831L68.7176 102.092C67.5447 102.76 66.3778 103.416 65.2172 104.062L66.1895 105.81ZM73.173 101.84L74.1763 103.57C75.3418 102.894 76.5124 102.209 77.6878 101.515L76.6716 99.7928L75.6553 98.0703C74.488 98.759 73.3261 99.4389 72.1697 100.109L73.173 101.84ZM80.1293 97.737L81.157 99.4528C82.2995 98.7685 83.4464 98.0768 84.5976 97.3782L83.56 95.6684L82.5224 93.9586C81.3774 94.6534 80.2371 95.3411 79.1017 96.0212L80.1293 97.737ZM87.0176 93.5576L88.064 95.2621C89.2036 94.5624 90.3472 93.8566 91.4947 93.145L90.4407 91.4453L89.3867 89.7456C88.2439 90.4542 87.1054 91.1569 85.9712 91.8532L87.0176 93.5576ZM93.8435 89.326L94.904 91.0217C96.0441 90.3087 97.1879 89.5906 98.3351 88.8678L97.2691 87.1756L96.203 85.4834C95.0592 86.204 93.9191 86.9198 92.783 87.6303L93.8435 89.326ZM100.675 85.0235L101.745 86.7127C102.871 85.9991 104.001 85.2814 105.133 84.5603L104.059 82.8734L102.984 81.1864C101.854 81.9062 100.727 82.6222 99.6041 83.3342L100.675 85.0235ZM107.462 80.7016L108.539 82.3867C109.67 81.6636 110.804 80.9374 111.941 80.2086L110.861 78.5249L109.782 76.8413C108.646 77.5693 107.514 78.2945 106.384 79.0165L107.462 80.7016ZM114.235 76.3595L115.316 78.0423C116.444 77.3179 117.575 76.5913 118.708 75.863L117.626 74.1806L116.545 72.4983C115.412 73.2265 114.282 73.9527 113.155 74.6767L114.235 76.3595ZM121.026 71.9946L122.108 73.677C123.23 72.9556 124.355 72.2329 125.481 71.5092L124.401 69.8264L123.32 68.1436C122.192 68.8676 121.067 69.5907 119.945 70.3122L121.026 71.9946ZM127.788 67.6523L128.868 69.336C129.999 68.611 131.132 67.8854 132.267 67.1597L131.19 65.4747L130.112 63.7897C128.976 64.5164 127.841 65.2429 126.709 65.9686L127.788 67.6523ZM134.577 63.3123L135.652 64.999C136.781 64.2797 137.911 63.5607 139.044 62.8423L137.972 61.1535L136.901 59.4647C135.766 60.1846 134.633 60.905 133.502 61.6256L134.577 63.3123ZM141.378 58.9982L142.446 60.6895C143.579 59.9744 144.714 59.2603 145.85 58.5476L144.787 56.8534L143.724 55.1592C142.585 55.8739 141.447 56.59 140.311 57.3069L141.378 58.9982ZM148.199 54.7201L149.257 56.4176C150.394 55.7092 151.532 55.0026 152.672 54.2982L151.62 52.597L150.568 50.8958C149.425 51.6028 148.282 52.3119 147.142 53.0225L148.199 54.7201ZM155.05 50.486L156.095 52.1913C157.238 51.4909 158.381 50.7931 159.526 50.0982L158.489 48.3885L157.451 46.6787C156.301 47.3767 155.152 48.0775 154.005 48.7807L155.05 50.486ZM161.934 46.3081L162.964 48.0227C164.111 47.334 165.259 46.6486 166.407 45.9669L165.386 44.2471L164.365 42.5272C163.211 43.2126 162.057 43.9014 160.905 44.5935L161.934 46.3081ZM168.861 42.197L169.873 43.9225C171.029 43.2449 172.185 42.5714 173.343 41.9024L172.342 40.171L171.341 38.4395C170.176 39.1126 169.013 39.7901 167.85 40.4716L168.861 42.197ZM175.826 38.1714L176.816 39.9093C177.982 39.2452 179.148 38.586 180.315 37.9322L179.337 36.1875L178.359 34.4428C177.184 35.1013 176.01 35.765 174.836 36.4336L175.826 38.1714ZM182.861 34.2293L183.826 35.9812C184.997 35.3366 186.168 34.6976 187.338 34.0649L186.388 32.3054L185.437 30.5459C184.256 31.1838 183.076 31.8278 181.897 32.4774L182.861 34.2293ZM189.937 30.4064L190.873 32.1739C192.06 31.5452 193.247 30.9233 194.434 30.3085L193.514 28.5326L192.594 26.7567C191.396 27.3772 190.199 28.0047 189.001 28.6389L189.937 30.4064ZM197.091 26.7014L197.994 28.4861C199.186 27.8834 200.377 27.2884 201.567 26.7015L200.683 24.9076L199.799 23.1138C198.595 23.7069 197.392 24.308 196.189 24.9167L197.091 26.7014ZM204.322 23.1383L205.186 24.9418C206.392 24.3638 207.597 23.7945 208.801 23.2344L207.958 21.421L207.114 19.6075C205.896 20.1744 204.676 20.7503 203.457 21.3348L204.322 23.1383ZM211.598 19.755L212.419 21.5787C213.647 21.0256 214.875 20.4824 216.102 19.9498L215.305 18.1153L214.508 16.2808C213.265 16.8207 212.021 17.371 210.777 17.9312L211.598 19.755ZM219.007 16.5381L219.778 18.3836C221.002 17.8722 222.225 17.3718 223.447 16.8827L222.704 15.0259L221.961 13.1692C220.72 13.6658 219.478 14.1738 218.236 14.6926L219.007 16.5381ZM226.484 13.5472L227.198 15.4157C228.446 14.939 229.693 14.4747 230.938 14.0234L230.257 12.1431L229.575 10.2628C228.308 10.7221 227.04 11.1942 225.771 11.6788L226.484 13.5472ZM234.02 10.8165L234.668 12.7086C235.943 12.2721 237.216 11.8498 238.487 11.4421L237.876 9.53776L237.265 7.63337C235.969 8.04913 234.671 8.47962 233.373 8.92427L234.02 10.8165ZM241.719 8.34735L242.291 10.2638C243.56 9.8853 244.826 9.52206 246.089 9.17463L245.559 7.24622L245.029 5.3178C243.737 5.67308 242.443 6.04429 241.148 6.43085L241.719 8.34735ZM249.485 6.21528L249.97 8.15557C251.261 7.83292 252.549 7.5275 253.833 7.23985L253.396 5.28819L252.959 3.33652C251.642 3.63154 250.322 3.94457 249 4.27499L249.485 6.21528ZM257.316 4.46357L257.702 6.42599C259.015 6.16767 260.326 5.92875 261.632 5.70982L261.301 3.73733L260.971 1.76484C259.626 1.99012 258.279 2.23578 256.93 2.50114L257.316 4.46357ZM265.267 3.13223L265.539 5.11364C266.853 4.93321 268.163 4.77387 269.469 4.63623L269.259 2.64725L269.049 0.658274C267.701 0.800413 266.35 0.964838 264.995 1.15083L265.267 3.13223ZM273.282 2.29036L273.425 4.28524C274.739 4.19097 276.049 4.11963 277.354 4.07188L277.281 2.07322L277.208 0.0745537C275.855 0.124058 274.499 0.197953 273.139 0.29549L273.282 2.29036ZM281.315 1.99999L281.314 3.99999C282.635 4.00078 283.951 4.02679 285.262 4.07868L285.341 2.08025L285.42 0.081812C284.057 0.0278208 282.689 0.000812531 281.317 -1.13249e-05L281.315 1.99999ZM289.343 2.31955L289.183 4.31313C290.498 4.41878 291.808 4.55164 293.111 4.71239L293.356 2.72742L293.601 0.74246C292.24 0.574645 290.874 0.436092 289.504 0.325977L289.343 2.31955ZM297.336 3.30679L297.005 5.27909C298.297 5.49638 299.583 5.74231 300.863 6.01758L301.283 4.06229L301.704 2.10701C300.364 1.81889 299.019 1.56166 297.668 1.33449L297.336 3.30679ZM305.195 4.99856L304.684 6.93228C305.952 7.26702 307.213 7.63187 308.468 8.02757L309.07 6.12012L309.671 4.21267C308.355 3.79787 307.033 3.41553 305.705 3.06484L305.195 4.99856ZM312.859 7.41392L312.168 9.29079C313.393 9.74171 314.612 10.2234 315.824 10.7365L316.603 8.89471L317.383 7.05291C316.112 6.5149 314.834 6.00986 313.55 5.53705L312.859 7.41392ZM320.283 10.5565L319.416 12.3591C320.58 12.9184 321.738 13.508 322.889 14.1288L323.838 12.3683L324.787 10.6078C323.582 9.95771 322.369 9.33995 321.149 8.75383L320.283 10.5565ZM327.354 14.3701L326.325 16.0849C326.895 16.4268 327.463 16.7766 328.029 17.1345L329.097 15.4438L330.166 13.753C329.574 13.3788 328.98 13.013 328.384 12.6553L327.354 14.3701ZM329.097 15.4438L328.029 17.1345C328.56 17.4701 329.094 17.811 329.632 18.1573L330.715 16.4762L331.799 14.795C331.251 14.4424 330.707 14.095 330.166 13.753L329.097 15.4438ZM334.006 18.6364L332.895 20.2993C333.995 21.0344 335.107 21.7905 336.232 22.567L337.368 20.9212L338.505 19.2754C337.364 18.4879 336.235 17.7204 335.117 16.9735L334.006 18.6364ZM340.64 23.213L339.482 24.8436C340.532 25.5893 341.591 26.3517 342.661 27.1303L343.838 25.5135L345.015 23.8966C343.934 23.1091 342.861 22.3376 341.798 21.5824L340.64 23.213ZM347.093 27.9107L345.898 29.5147C346.961 30.3063 348.032 31.113 349.113 31.9345L350.323 30.3425L351.534 28.7504C350.443 27.9213 349.361 27.1066 348.287 26.3068L347.093 27.9107ZM353.434 32.7298L352.21 34.3112C353.25 35.1165 354.298 35.9347 355.353 36.7656L356.59 35.1941L357.827 33.6227C356.764 32.7854 355.708 31.9605 354.659 31.1484L353.434 32.7298ZM359.79 37.7336L358.541 39.2955C359.554 40.1053 360.573 40.9261 361.598 41.7577L362.858 40.2042L364.118 38.6507C363.085 37.8137 362.059 36.9872 361.039 36.1716L359.79 37.7336ZM365.928 42.7097L364.659 44.2552C365.685 45.0981 366.717 45.9511 367.755 46.8142L369.034 45.2761L370.312 43.7381C369.268 42.8702 368.23 42.0122 367.197 41.1642L365.928 42.7097ZM372.155 47.8859L370.868 49.4169C371.86 50.2501 372.856 51.092 373.857 51.9423L375.152 50.4178L376.446 48.8933C375.44 48.0388 374.439 47.1927 373.442 46.355L372.155 47.8859ZM378.178 52.9999L376.876 54.5183C377.888 55.3852 378.904 56.2604 379.925 57.1435L381.233 55.6309L382.542 54.1182C381.516 53.2313 380.496 52.3523 379.48 51.4814L378.178 52.9999ZM384.292 58.2883L382.978 59.7955C383.958 60.6508 384.943 61.5131 385.932 62.3823L387.252 60.8801L388.573 59.3779C387.58 58.5055 386.592 57.6398 385.607 56.7811L384.292 58.2883ZM390.237 63.5127L388.911 65.0102C389.908 65.8929 390.909 66.7822 391.914 67.678L393.245 66.185L394.576 64.692C393.567 63.7933 392.563 62.901 391.562 62.0152L390.237 63.5127ZM396.274 68.894L394.939 70.3827C395.909 71.2535 396.883 72.13 397.861 73.0121L399.201 71.5273L400.541 70.0425C399.56 69.1579 398.583 68.2787 397.61 67.4053L396.274 68.894ZM402.147 74.194L400.803 75.675C401.788 76.5682 402.775 77.4667 403.766 78.3705L405.114 76.893L406.462 75.4154C405.468 74.5093 404.478 73.6084 403.491 72.7129L402.147 74.194ZM408.099 79.6234L406.748 81.0976C407.72 81.9894 408.696 82.8861 409.675 83.7875L411.03 82.3165L412.385 80.8454C411.404 79.942 410.426 79.0432 409.451 78.1492L408.099 79.6234ZM413.944 85.0067L412.586 86.4749C413.559 87.3752 414.535 88.2799 415.514 89.1889L416.875 87.7235L418.236 86.2581C417.255 85.3473 416.278 84.4408 415.302 83.5386L413.944 85.0067ZM419.821 90.4658L418.457 91.9285C419.435 92.8404 420.416 93.7563 421.399 94.6761L422.765 93.2159L424.132 91.7556C423.147 90.8342 422.165 89.9166 421.185 89.0031L419.821 90.4658ZM425.653 95.9233L424.284 97.3812C425.248 98.2866 426.215 99.1956 427.183 100.108L428.555 98.6523L429.926 97.1965C428.956 96.2826 427.988 95.3722 427.022 94.4653L425.653 95.9233ZM431.469 101.402L430.096 102.856C431.069 103.775 432.044 104.698 433.021 105.624L434.397 104.172L435.772 102.72C434.794 101.793 433.817 100.869 432.843 99.9483L431.469 101.402ZM437.294 106.921L435.917 108.371C436.874 109.28 437.833 110.192 438.794 111.107L440.173 109.659L441.552 108.21C440.59 107.294 439.63 106.381 438.672 105.471L437.294 106.921ZM443.063 112.414L441.682 113.86C442.646 114.781 443.613 115.704 444.581 116.63L445.963 115.184L447.345 113.739C446.376 112.812 445.409 111.888 444.444 110.967L443.063 112.414ZM448.873 117.97L447.489 119.414C448.444 120.329 449.401 121.247 450.359 122.167L451.744 120.724L453.129 119.281C452.17 118.361 451.213 117.442 450.257 116.526L448.873 117.97ZM454.616 123.483L453.23 124.925C454.188 125.846 455.148 126.769 456.109 127.695L457.496 126.254L458.883 124.814C457.922 123.887 456.961 122.963 456.002 122.041L454.616 123.483ZM460.384 129.037L458.996 130.477C459.959 131.406 460.924 132.337 461.89 133.269L463.279 131.83L464.668 130.391C463.702 129.458 462.736 128.527 461.772 127.597L460.384 129.037ZM466.139 134.593L464.749 136.031C465.703 136.954 466.659 137.877 467.615 138.803L469.006 137.365L470.397 135.928C469.44 135.002 468.484 134.078 467.529 133.155L466.139 134.593ZM471.879 140.146L470.488 141.583C471.446 142.511 472.406 143.44 473.366 144.371L474.758 142.935L476.15 141.498C475.189 140.567 474.229 139.638 473.27 138.709L471.879 140.146ZM477.639 145.727L476.247 147.163C477.2 148.087 478.153 149.011 479.107 149.937L480.5 148.501L481.892 147.065C480.938 146.14 479.984 145.215 479.031 144.291L477.639 145.727ZM483.365 151.281L481.972 152.716C482.928 153.643 483.884 154.572 484.842 155.501L486.234 154.065L487.627 152.63C486.67 151.701 485.714 150.773 484.758 149.845L483.365 151.281ZM489.108 156.854L487.715 158.289C488.673 159.219 489.631 160.149 490.59 161.08L491.983 159.645L493.376 158.21C492.417 157.279 491.459 156.349 490.501 155.419L489.108 156.854ZM494.847 162.425L493.454 163.86C494.409 164.787 495.365 165.715 496.321 166.642L497.714 165.207L499.106 163.772C498.15 162.844 497.195 161.917 496.24 160.99L494.847 162.425ZM500.583 167.991L499.19 169.427C500.147 170.355 501.105 171.284 502.062 172.212L503.455 170.777L504.847 169.341C503.89 168.412 502.932 167.484 501.976 166.556L500.583 167.991ZM506.327 173.562L504.936 174.998C505.893 175.925 506.85 176.853 507.807 177.78L509.199 176.343L510.59 174.907C509.633 173.98 508.676 173.053 507.719 172.125L506.327 173.562ZM512.071 179.124L510.68 180.562C511.638 181.489 512.596 182.415 513.554 183.342L514.944 181.904L516.335 180.466C515.377 179.54 514.419 178.614 513.462 177.687L512.071 179.124ZM517.818 184.681L516.428 186.12C517.387 187.046 518.346 187.971 519.304 188.897L520.693 187.457L522.082 186.018C521.124 185.094 520.166 184.168 519.207 183.243L517.818 184.681ZM523.576 190.237L522.188 191.677C523.149 192.603 524.109 193.529 525.07 194.453L526.457 193.013L527.844 191.572C526.884 190.647 525.924 189.723 524.963 188.797L523.576 190.237ZM529.338 195.783L527.952 197.225C528.912 198.148 529.872 199.07 530.832 199.991L532.217 198.548L533.602 197.105C532.643 196.185 531.683 195.264 530.724 194.341L529.338 195.783ZM535.099 201.312L533.716 202.756C534.682 203.682 535.648 204.607 536.614 205.531L537.997 204.085L539.379 202.64C538.414 201.717 537.449 200.793 536.483 199.868L535.099 201.312ZM540.891 206.851L539.51 208.297C540.475 209.218 541.44 210.138 542.404 211.056L543.783 209.608L545.163 208.16C544.2 207.242 543.236 206.324 542.272 205.404L540.891 206.851ZM546.672 212.356L545.294 213.806C546.26 214.724 547.226 215.641 548.191 216.556L549.567 215.104L550.943 213.653C549.979 212.739 549.015 211.824 548.05 210.907L546.672 212.356ZM552.483 217.866L551.109 219.319C552.081 220.238 553.052 221.156 554.022 222.071L555.395 220.616L556.767 219.161C555.798 218.247 554.828 217.331 553.857 216.413L552.483 217.866ZM558.302 223.355L556.931 224.811C557.9 225.723 558.868 226.632 559.835 227.539L561.203 226.081L562.572 224.622C561.606 223.716 560.639 222.808 559.672 221.898L558.302 223.355ZM564.119 228.811L562.753 230.272C563.735 231.19 564.715 232.105 565.694 233.018L567.058 231.555L568.422 230.092C567.444 229.181 566.465 228.267 565.485 227.351L564.119 228.811ZM569.99 234.284L568.629 235.749C569.607 236.657 570.583 237.562 571.557 238.464L572.916 236.997L574.274 235.529C573.301 234.628 572.327 233.725 571.352 232.819L569.99 234.284ZM575.834 239.693L574.478 241.163C575.464 242.071 576.448 242.977 577.43 243.879L578.783 242.406L580.136 240.934C579.155 240.033 578.173 239.129 577.19 238.222L575.834 239.693ZM581.748 245.124L580.398 246.6C581.387 247.504 582.373 248.404 583.358 249.301L584.705 247.823L586.051 246.344C585.069 245.449 584.084 244.55 583.098 243.649L581.748 245.124ZM587.652 250.5L586.309 251.982C587.291 252.872 588.271 253.759 589.25 254.642L590.589 253.157L591.929 251.672C590.953 250.791 589.975 249.907 588.995 249.019L587.652 250.5ZM593.589 255.856L592.253 257.344C593.254 258.243 594.254 259.138 595.252 260.029L596.584 258.537L597.916 257.045C596.921 256.157 595.924 255.264 594.925 254.368L593.589 255.856ZM599.567 261.193L598.239 262.689C599.233 263.571 600.225 264.449 601.215 265.323L602.538 263.823L603.862 262.324C602.875 261.453 601.886 260.577 600.895 259.698L599.567 261.193ZM605.53 266.456L604.211 267.96C605.229 268.853 606.244 269.741 607.257 270.623L608.571 269.116L609.885 267.608C608.876 266.728 607.864 265.843 606.849 264.953L605.53 266.456ZM611.598 271.745L610.289 273.257C611.298 274.13 612.304 274.997 613.307 275.86L614.61 274.343L615.914 272.826C614.914 271.967 613.912 271.102 612.907 270.233L611.598 271.745ZM617.607 276.909L616.309 278.43C617.343 279.312 618.374 280.188 619.402 281.057L620.694 279.531L621.985 278.004C620.962 277.138 619.935 276.265 618.905 275.387L617.607 276.909ZM623.772 282.124L622.486 283.656C623.511 284.516 624.534 285.37 625.553 286.217L626.831 284.68L628.11 283.142C627.095 282.298 626.078 281.448 625.057 280.592L623.772 282.124ZM629.872 287.196L628.601 288.74C629.644 289.599 630.683 290.452 631.72 291.297L632.984 289.747L634.248 288.197C633.217 287.356 632.182 286.508 631.144 285.653L629.872 287.196ZM636.12 292.291L634.864 293.847C635.909 294.69 636.949 295.525 637.987 296.353L639.234 294.789L640.481 293.226C639.45 292.403 638.415 291.573 637.376 290.734L636.12 292.291ZM642.324 297.24L641.086 298.811C642.147 299.647 643.204 300.475 644.257 301.294L645.485 299.716L646.713 298.138C645.668 297.324 644.617 296.501 643.563 295.67L642.324 297.24ZM648.686 302.19L647.468 303.777C648.534 304.595 649.596 305.404 650.653 306.203L651.859 304.608L653.066 303.013C652.017 302.22 650.963 301.416 649.904 300.604L648.686 302.19ZM655.004 306.969L653.81 308.573C654.902 309.386 655.99 310.19 657.072 310.982L658.253 309.368L659.435 307.754C658.362 306.969 657.283 306.172 656.199 305.365L655.004 306.969ZM661.523 311.74L660.356 313.364C661.446 314.147 662.529 314.918 663.607 315.678L664.759 314.043L665.911 312.408C664.844 311.656 663.77 310.892 662.691 310.116L661.523 311.74ZM667.972 316.283L666.836 317.929C667.977 318.716 669.111 319.489 670.237 320.248L671.354 318.589L672.472 316.93C671.358 316.18 670.236 315.415 669.108 314.637L667.972 316.283ZM674.694 320.809L673.597 322.482C674.71 323.212 675.816 323.927 676.914 324.628L677.99 322.942L679.065 321.256C677.982 320.565 676.89 319.858 675.791 319.137L674.694 320.809ZM681.407 325.088L680.355 326.79C681.525 327.512 682.686 328.217 683.838 328.904L684.862 327.186L685.887 325.468C684.753 324.793 683.61 324.099 682.458 323.387L681.407 325.088ZM688.263 329.175L687.268 330.91C688.453 331.589 689.627 332.248 690.792 332.886L691.753 331.132L692.714 329.378C691.573 328.753 690.42 328.106 689.257 327.44L688.263 329.175ZM695.332 333.042L694.409 334.817C695.604 335.438 696.788 336.036 697.96 336.609L698.839 334.813L699.719 333.017C698.576 332.458 697.421 331.874 696.254 331.268L695.332 333.042ZM702.479 336.534L701.65 338.354C702.916 338.931 704.168 339.478 705.405 339.995L706.175 338.149L706.946 336.303C705.75 335.804 704.537 335.274 703.309 334.714L702.479 336.534ZM709.778 339.58L709.073 341.452C710.414 341.957 711.736 342.423 713.041 342.85L713.662 340.949L714.284 339.048C713.039 338.641 711.771 338.194 710.482 337.709L709.778 339.58ZM717.44 342.084L716.913 344.014C718.278 344.386 719.622 344.711 720.944 344.988L721.353 343.03L721.762 341.072C720.524 340.814 719.259 340.508 717.966 340.155L717.44 342.084ZM725.281 343.708L725.015 345.691C725.681 345.78 726.341 345.856 726.996 345.918L727.183 343.927L727.371 341.935C726.771 341.879 726.164 341.809 725.548 341.726L725.281 343.708Z" fill="black"/>
</svg>
