<svg width="156" height="223" viewBox="0 0 156 223" fill="none" xmlns="http://www.w3.org/2000/svg">
<path d="M0 214.584L15.5092 222.295L14.4328 205.008L0 214.584ZM75.3232 83.7451L76.4751 82.7843L75.3232 83.7451ZM5.91085 213.447L6.47413 214.838C7.81476 214.294 9.08333 213.584 10.2838 212.725L9.41117 211.505L8.53852 210.285C7.51535 211.017 6.45302 211.609 5.34758 212.057L5.91085 213.447ZM12.4378 208.86L13.5207 209.898C14.4716 208.906 15.3739 207.811 16.2317 206.626L15.0166 205.747L13.8016 204.867C13.0147 205.954 12.1996 206.941 11.3549 207.822L12.4378 208.86ZM17.2155 202.343L18.5131 203.095C19.1792 201.946 19.8175 200.736 20.4301 199.471L19.08 198.817L17.73 198.164C17.1464 199.369 16.5428 200.513 15.9179 201.59L17.2155 202.343ZM20.7256 195.14L22.1113 195.714C22.6285 194.466 23.1267 193.176 23.6074 191.846L22.1967 191.336L20.7861 190.826C20.3197 192.116 19.838 193.364 19.3399 194.565L20.7256 195.14ZM23.4825 187.561L24.9106 188.02C25.3202 186.745 25.7165 185.44 26.1007 184.109L24.6595 183.693L23.2184 183.277C22.8418 184.582 22.4541 185.858 22.0544 187.102L23.4825 187.561ZM25.7307 179.798L27.1817 180.178C27.5196 178.889 27.8479 177.58 28.1674 176.252L26.709 175.901L25.2506 175.55C24.9355 176.86 24.6121 178.15 24.2798 179.417L25.7307 179.798ZM27.6238 171.945L29.088 172.271C29.3769 170.972 29.6586 169.658 29.9338 168.333L28.4651 168.028L26.9964 167.723C26.7239 169.036 26.4451 170.335 26.1595 171.619L27.6238 171.945ZM29.2648 164.05L30.7371 164.338C30.9925 163.028 31.2424 161.709 31.4875 160.381L30.0124 160.109L28.5373 159.836C28.2939 161.155 28.0458 162.464 27.7926 163.763L29.2648 164.05ZM30.7302 156.126L32.2074 156.387C32.4398 155.067 32.6681 153.742 32.893 152.413L31.4141 152.163L29.9351 151.912C29.7112 153.236 29.484 154.554 29.2529 155.866L30.7302 156.126ZM32.0771 148.178L33.5574 148.421C33.7747 147.094 33.9893 145.766 34.2017 144.437L32.7205 144.201L31.2393 143.964C31.0274 145.289 30.8135 146.614 30.5969 147.936L32.0771 148.178ZM33.3517 140.217L34.8335 140.45C35.0429 139.118 35.2507 137.788 35.4575 136.462L33.9754 136.23L32.4934 135.999C32.2866 137.325 32.079 138.654 31.87 139.984L33.3517 140.217ZM34.5959 132.249L36.078 132.48C36.2862 131.145 36.494 129.815 36.7021 128.493L35.2203 128.259L33.7386 128.026C33.5302 129.351 33.3221 130.682 33.1138 132.017L34.5959 132.249ZM35.8517 124.28L37.3328 124.517C37.5469 123.181 37.762 121.854 37.9786 120.539L36.4985 120.295L35.0185 120.052C34.801 121.372 34.5853 122.703 34.3706 124.043L35.8517 124.28ZM37.1659 116.317L38.6444 116.57C38.8726 115.236 39.1031 113.918 39.3368 112.616L37.8604 112.351L36.384 112.086C36.1487 113.397 35.9168 114.723 35.6874 116.064L37.1659 116.317ZM38.5961 108.37L40.0696 108.651C40.3217 107.328 40.5781 106.026 40.8395 104.749L39.37 104.448L37.9004 104.148C37.636 105.44 37.377 106.754 37.1226 108.089L38.5961 108.37ZM40.2203 100.464L41.6844 100.791C41.9796 99.467 42.2817 98.1751 42.5916 96.9182L41.1352 96.5591L39.6788 96.2C39.363 97.4808 39.0559 98.7945 38.7563 100.138L40.2203 100.464ZM42.1545 92.6595L43.5998 93.0609C43.9694 91.7301 44.35 90.4494 44.743 89.2232L43.3145 88.7654L41.8861 88.3076C41.4798 89.5755 41.088 90.8941 40.7092 92.2581L42.1545 92.6595ZM44.6379 84.9692L46.0397 85.5028C46.5254 84.2271 47.028 83.0339 47.5494 81.9287L46.1928 81.2887L44.8362 80.6488C44.2772 81.8336 43.7449 83.0988 43.236 84.4355L44.6379 84.9692ZM48.0984 77.7657L49.369 78.5628C50.0997 77.3981 50.855 76.4072 51.6352 75.5922L50.5516 74.5549L49.4681 73.5177C48.5199 74.5082 47.6432 75.6685 46.8277 76.9686L48.0984 77.7657ZM53.767 72.1341L54.4241 73.4825C55.4221 72.9962 56.4761 72.7513 57.6127 72.7659L57.632 71.2661L57.6514 69.7662C56.0356 69.7453 54.5193 70.0989 53.11 70.7857L53.767 72.1341ZM61.5372 72.0906L60.9893 73.487C61.9964 73.882 63.0766 74.4497 64.2343 75.2144L65.061 73.9628L65.8878 72.7112C64.5865 71.8516 63.32 71.1787 62.085 70.6942L61.5372 72.0906ZM68.2372 76.385L67.2599 77.523C68.1891 78.321 69.1547 79.2271 70.158 80.2474L71.2275 79.1957L72.2971 78.144C71.2422 77.0713 70.2152 76.1066 69.2145 75.2471L68.2372 76.385ZM73.9215 82.1051L72.7936 83.0941C73.2462 83.6102 73.7054 84.1474 74.1714 84.706L75.3232 83.7451L76.4751 82.7843C75.9941 82.2077 75.5189 81.6517 75.0493 81.1162L73.9215 82.1051ZM75.3232 83.7451L74.1714 84.706C74.6305 85.2563 75.0847 85.7906 75.5342 86.3093L76.6677 85.3268L77.8012 84.3444C77.3645 83.8406 76.9225 83.3206 76.4751 82.7843L75.3232 83.7451ZM79.2664 88.2048L78.1756 89.2344C79.151 90.2678 80.1039 91.2237 81.0353 92.1043L82.0658 91.0144L83.0964 89.9244C82.2101 89.0864 81.2973 88.1711 80.3573 87.1751L79.2664 88.2048ZM84.9497 93.5531L84.0041 94.7174C85.1224 95.6257 86.2115 96.4206 87.2734 97.1052L88.0861 95.8444L88.8989 94.5837C87.94 93.9656 86.9395 93.2367 85.8953 92.3887L84.9497 93.5531ZM91.544 97.7069L90.9561 99.087C92.3647 99.6869 93.7332 100.079 95.064 100.264L95.27 98.7777L95.4759 97.2919C94.4418 97.1486 93.3299 96.8372 92.1318 96.3269L91.544 97.7069ZM99.1696 98.6118L99.5181 100.071C100.959 99.7265 102.3 99.1112 103.546 98.2735L102.709 97.0286L101.873 95.7837C100.892 96.4429 99.8786 96.9003 98.8212 97.1528L99.1696 98.6118ZM105.636 94.4353L106.752 95.4373C107.638 94.4509 108.471 93.3409 109.261 92.1287L108.004 91.3102L106.747 90.4917C106.026 91.5983 105.284 92.5812 104.52 93.4333L105.636 94.4353ZM109.961 87.9254L111.293 88.6159C111.886 87.4713 112.457 86.2622 113.009 84.9981L111.634 84.3981L110.26 83.798C109.731 85.0101 109.188 86.1579 108.63 87.235L109.961 87.9254ZM113.109 80.777L114.51 81.3117C114.971 80.1029 115.42 78.8548 115.86 77.5737L114.441 77.0874L113.022 76.6011C112.592 77.8542 112.155 79.0697 111.707 80.2424L113.109 80.777ZM115.667 73.3472L117.098 73.7977C117.486 72.5648 117.868 71.3076 118.244 70.0308L116.806 69.6065L115.367 69.1822C114.995 70.4442 114.618 71.6837 114.237 72.8968L115.667 73.3472ZM117.885 65.85L119.329 66.2555C119.681 65.0029 120.03 63.7358 120.376 62.4582L118.929 62.0654L117.481 61.6727C117.136 62.9437 116.79 64.2022 116.441 65.4445L117.885 65.85ZM119.944 58.2787L121.394 58.664C121.728 57.408 122.061 56.1449 122.395 54.8791L120.945 54.4964L119.495 54.1138C119.161 55.3796 118.828 56.6403 118.495 57.8933L119.944 58.2787ZM121.947 50.7054L123.397 51.0899C123.731 49.8296 124.067 48.5698 124.405 47.3135L122.957 46.9229L121.509 46.5322C121.169 47.794 120.832 49.0582 120.497 50.3209L121.947 50.7054ZM123.992 43.1399L125.437 43.5413C125.787 42.2815 126.141 41.0291 126.5 39.7873L125.059 39.3704L123.618 38.9535C123.255 40.2072 122.899 41.4701 122.546 42.7385L123.992 43.1399ZM126.171 35.6244L127.606 36.0621C127.99 34.8046 128.38 33.5625 128.779 32.3398L127.353 31.8748L125.926 31.4098C125.521 32.6528 125.125 33.913 124.736 35.1866L126.171 35.6244ZM128.611 28.1632L130.025 28.6626C130.46 27.4312 130.905 26.2257 131.361 25.0501L129.963 24.5072L128.565 23.9644C128.096 25.1717 127.64 26.4064 127.196 27.6637L128.611 28.1632ZM131.453 20.8752L132.829 21.4732C133.354 20.2641 133.895 19.0972 134.452 17.9777L133.109 17.3096L131.766 16.6415C131.183 17.8121 130.621 19.0261 130.077 20.2772L131.453 20.8752ZM134.967 13.859L136.261 14.6165C136.921 13.4889 137.602 12.4293 138.306 11.444L137.085 10.572L135.865 9.7C135.102 10.7679 134.372 11.905 133.672 13.1014L134.967 13.859ZM139.54 7.53169L140.643 8.5485C141.507 7.61126 142.401 6.78411 143.326 6.07334L142.412 4.88386L141.498 3.69439C140.422 4.5214 139.403 5.46747 138.438 6.51488L139.54 7.53169ZM145.74 2.85481L146.368 4.21727C147.433 3.72679 148.544 3.37332 149.709 3.16754L149.449 1.6904L149.188 0.213253C147.761 0.465179 146.404 0.897801 145.113 1.49234L145.74 2.85481ZM153.329 1.49645L153.225 2.99289C153.82 3.03391 154.431 3.10949 155.059 3.22174L155.323 1.74515L155.587 0.268558C154.857 0.138001 154.138 0.0487257 153.432 5.96046e-07L153.329 1.49645Z" fill="black"/>
</svg>
