<svg width="67" height="276" viewBox="0 0 67 276" fill="none" xmlns="http://www.w3.org/2000/svg">
<path d="M0 267.686L15.504 275.407L14.4392 258.12L0 267.686ZM43.5 60.1857L42.752 58.8855L43.5 60.1857ZM5.88264 266.501L6.49746 267.869C7.85786 267.258 9.09068 266.444 10.2034 265.449L9.20366 264.331L8.20387 263.213C7.30896 264.013 6.33358 264.654 5.26782 265.133L5.88264 266.501ZM11.8059 261.316L13.0473 262.157C13.8125 261.029 14.4947 259.786 15.1033 258.442L13.7369 257.823L12.3704 257.205C11.822 258.416 11.2206 259.506 10.5644 260.474L11.8059 261.316ZM15.1574 254.084L16.5868 254.539C16.9908 253.27 17.351 251.933 17.6718 250.534L16.2097 250.199L14.7476 249.863C14.443 251.192 14.104 252.449 13.7281 253.629L15.1574 254.084ZM16.9879 246.227L18.4676 246.473C18.681 245.188 18.8691 243.86 19.0339 242.491L17.5447 242.312L16.0555 242.132C15.8954 243.461 15.7135 244.745 15.5081 245.981L16.9879 246.227ZM17.9524 238.311L19.447 238.438C19.5591 237.116 19.6537 235.762 19.7324 234.379L18.2348 234.293L16.7372 234.208C16.66 235.567 16.5673 236.893 16.4577 238.184L17.9524 238.311ZM18.4151 230.319L19.9142 230.371C19.9607 229.032 19.9948 227.668 20.0176 226.282L18.5178 226.257L17.018 226.233C16.9954 227.602 16.9618 228.948 16.916 230.267L18.4151 230.319ZM18.5535 222.3L20.0535 222.303C20.0562 220.967 20.0502 219.611 20.0365 218.239L18.5365 218.254L17.0366 218.269C17.0503 219.63 17.0562 220.974 17.0535 222.297L18.5535 222.3ZM18.4769 214.279L19.9767 214.25C19.9504 212.914 19.9181 211.563 19.8805 210.2L18.3811 210.241L16.8816 210.282C16.919 211.639 16.9512 212.982 16.9772 214.309L18.4769 214.279ZM18.2587 206.262L19.7578 206.211C19.7128 204.875 19.6636 203.527 19.6112 202.168L18.1123 202.226L16.6135 202.284C16.6657 203.638 16.7147 204.981 16.7596 206.312L18.2587 206.262ZM17.9514 198.247L19.45 198.184C19.3937 196.847 19.335 195.502 19.2746 194.148L17.7761 194.215L16.2776 194.282C16.3379 195.633 16.3965 196.976 16.4527 198.31L17.9514 198.247ZM17.5954 190.234L19.0938 190.165C19.0324 188.832 18.9701 187.492 18.9076 186.146L17.4092 186.216L15.9108 186.286C15.9734 187.631 16.0356 188.97 16.097 190.303L17.5954 190.234ZM17.224 182.221L18.7225 182.152C18.6611 180.82 18.6002 179.484 18.5403 178.145L17.0418 178.212L15.5433 178.279C15.6033 179.62 15.6643 180.957 15.7256 182.29L17.224 182.221ZM16.8666 174.207L18.3653 174.143C18.3086 172.812 18.2535 171.479 18.2006 170.144L16.7018 170.203L15.203 170.262C15.256 171.601 15.3112 172.937 15.368 174.271L16.8666 174.207ZM16.5503 166.193L18.0493 166.14C18.0016 164.808 17.9567 163.475 17.9152 162.142L16.4159 162.188L14.9166 162.235C14.9583 163.573 15.0034 164.911 15.0513 166.247L16.5503 166.193ZM16.3018 158.182L17.8013 158.143C17.767 156.808 17.7367 155.474 17.711 154.142L16.2113 154.17L14.7116 154.199C14.7374 155.539 14.7678 156.879 14.8023 158.22L16.3018 158.182ZM16.1484 150.168L17.6483 150.15C17.6323 148.812 17.6215 147.477 17.6166 146.146L16.1166 146.151L14.6166 146.157C14.6215 147.497 14.6324 148.841 14.6485 150.186L16.1484 150.168ZM16.1201 142.148L17.6201 142.157C17.6276 140.819 17.6418 139.486 17.6632 138.158L16.1634 138.134L14.6635 138.11C14.642 139.449 14.6277 140.792 14.6201 142.14L16.1201 142.148ZM16.2509 134.128L17.7503 134.169C17.7874 132.834 17.8326 131.506 17.8865 130.185L16.3878 130.123L14.889 130.062C14.8345 131.397 14.7889 132.739 14.7514 134.086L16.2509 134.128ZM16.5802 126.113L18.0779 126.196C18.1516 124.865 18.2351 123.543 18.329 122.231L16.8328 122.124L15.3367 122.017C15.2415 123.346 15.1571 124.684 15.0825 126.03L16.5802 126.113ZM17.1558 118.113L18.6498 118.247C18.7687 116.923 18.8993 115.61 19.0424 114.309L17.5513 114.145L16.0603 113.981C15.915 115.303 15.7824 116.636 15.6618 117.979L17.1558 118.113ZM18.0366 110.143L19.5235 110.34C19.6985 109.024 19.8875 107.723 20.0913 106.437L18.6098 106.202L17.1283 105.967C16.9204 107.279 16.7278 108.605 16.5497 109.945L18.0366 110.143ZM19.2974 102.225L20.7716 102.502C21.0167 101.198 21.2787 99.9123 21.5585 98.6461L20.0939 98.3224L18.6292 97.9986C18.3422 99.2975 18.0738 100.615 17.8232 101.948L19.2974 102.225ZM21.0338 94.402L22.4858 94.7787C22.8193 93.4932 23.1735 92.2311 23.5492 90.9936L22.1139 90.5578L20.6786 90.1221C20.2904 91.4006 19.9252 92.7022 19.5819 94.0252L21.0338 94.402ZM23.3683 86.7427L24.7817 87.2452C25.2269 85.9929 25.6972 84.7703 26.1938 83.5788L24.8092 83.0018L23.4246 82.4247C22.9065 83.6679 22.4171 84.9404 21.955 86.2403L23.3683 86.7427ZM26.4521 79.3665L27.7993 80.0262C28.3829 78.8344 28.997 77.6798 29.6428 76.5641L28.3447 75.8126L27.0466 75.061C26.3641 76.2398 25.7175 77.4559 25.105 78.7068L26.4521 79.3665ZM30.4715 72.4419L31.7074 73.292C32.4498 72.2128 33.2281 71.178 34.0439 70.1897L32.887 69.2348L31.7302 68.28C30.8564 69.3387 30.0255 70.4436 29.2357 71.5919L30.4715 72.4419ZM35.5764 66.2732L36.6367 67.3343C37.5471 66.4246 38.4985 65.5647 39.4925 64.7568L38.5465 63.5928L37.6004 62.4288C36.5247 63.303 35.4973 64.2318 34.5162 65.2122L35.5764 66.2732ZM41.7787 61.2388L42.5959 62.4967C43.1352 62.1463 43.6858 61.8093 44.248 61.4858L43.5 60.1857L42.752 58.8855C42.1428 59.236 41.5461 59.6012 40.9616 59.9809L41.7787 61.2388ZM43.5 60.1857L44.248 61.4858C44.8602 61.1337 45.4578 60.7827 46.0412 60.4331L45.2701 59.1465L44.4989 57.8599C43.9313 58.2001 43.349 58.542 42.752 58.8855L43.5 60.1857ZM48.5518 57.0943L49.3726 58.3498C50.5348 57.5899 51.6303 56.8358 52.6613 56.0872L51.78 54.8734L50.8988 53.6596C49.9101 54.3774 48.855 55.1039 47.7309 55.8388L48.5518 57.0943ZM54.7691 52.5696L55.7213 53.7286C56.8358 52.813 57.8554 51.9048 58.7838 51.0038L57.7392 49.9274L56.6945 48.8509C55.8306 49.6893 54.8733 50.5427 53.8169 51.4106L54.7691 52.5696ZM60.3885 47.0722L61.5457 48.0266C62.4724 46.9031 63.2611 45.7877 63.9171 44.6799L62.6265 43.9155L61.3359 43.1512C60.7668 44.112 60.0699 45.1011 59.2313 46.1178L60.3885 47.0722ZM64.242 40.404L65.6679 40.8698C66.1335 39.4442 66.3799 38.038 66.422 36.6552L64.9227 36.6095L63.4234 36.5639C63.3903 37.6488 63.197 38.7724 62.8162 39.9383L64.242 40.404ZM64.4481 32.7742L65.8926 32.3699C65.5134 31.015 64.9446 29.7136 64.2228 28.4667L62.9246 29.2182L61.6264 29.9697C62.2372 31.0248 62.7001 32.0942 63.0036 33.1785L64.4481 32.7742ZM60.6676 26.0649L61.808 25.0905C60.9468 24.0825 59.9883 23.1107 58.9527 22.1745L57.9468 23.2873L56.9409 24.4C57.8944 25.262 58.7606 26.1421 59.5272 27.0393L60.6676 26.0649ZM54.9351 20.8214L55.8332 19.6199C54.7848 18.8362 53.6846 18.0777 52.5454 17.3441L51.7333 18.6053L50.9212 19.8664C52.0086 20.5666 53.0508 21.2855 54.037 22.0228L54.9351 20.8214ZM48.4003 16.5895L49.1429 15.2863C48.0041 14.6374 46.8392 14.0096 45.6583 13.4029L44.9728 14.7371L44.2873 16.0713C45.4335 16.6602 46.5601 17.2675 47.6577 17.8928L48.4003 16.5895ZM41.4756 13.0202L42.1135 11.6626C40.9205 11.102 39.7207 10.5617 38.5237 10.0418L37.9261 11.4175L37.3284 12.7933C38.5009 13.3027 39.6738 13.8309 40.8377 14.3778L41.4756 13.0202ZM34.3365 9.91206L34.9 8.52192C33.666 8.02173 32.4453 7.54351 31.249 7.08737L30.7146 8.48896L30.1802 9.89054C31.3592 10.34 32.5603 10.8106 33.773 11.3022L34.3365 9.91206ZM27.0634 7.13425L27.5734 5.72361C26.2894 5.25938 25.0509 4.82348 23.8743 4.41615L23.3836 5.83362L22.8929 7.25109C24.0593 7.65488 25.2846 8.08618 26.5535 8.54489L27.0634 7.13425ZM19.6837 4.57236L20.1627 3.15089C18.7863 2.6871 17.5657 2.27925 16.523 1.92223L16.0371 3.34133L15.5511 4.76043C16.603 5.12063 17.8394 5.53376 19.2047 5.99383L19.6837 4.57236ZM12.3567 1.9025L13.1735 0.644439C13.1353 0.619613 13.2629 0.690533 13.3951 0.86907C13.4679 0.967372 13.5976 1.17221 13.6443 1.47217C13.6971 1.81163 13.625 2.16082 13.4413 2.45182C13.279 2.70902 13.0782 2.8454 12.9724 2.90641C12.8615 2.97043 12.7729 2.99879 12.7396 3.00866C12.6761 3.02752 12.6652 3.02206 12.7521 3.01414C13.1233 2.98035 13.9699 3.00099 15.4872 3.11748L15.602 1.62189L15.7169 0.126287C14.238 0.0127398 13.1424 -0.0337933 12.4801 0.0264987C12.3087 0.0421035 12.0962 0.0702443 11.8857 0.132749C11.7612 0.169734 11.2368 0.32382 10.9043 0.850677C10.7005 1.17354 10.6214 1.55711 10.6799 1.93344C10.7323 2.27028 10.8805 2.5145 10.9844 2.65468C11.1787 2.91697 11.4183 3.08166 11.5398 3.16057L12.3567 1.9025ZM19.4335 1.97193L19.2833 3.46439C19.9219 3.52867 20.6076 3.59963 21.3423 3.67731L21.5 2.18563L21.6577 0.69394C20.919 0.615831 20.2282 0.544343 19.5838 0.479477L19.4335 1.97193Z" fill="black"/>
</svg>
