<svg width="716" height="325" viewBox="0 0 716 325" fill="none" xmlns="http://www.w3.org/2000/svg">
<path d="M0 6.70914L16.8593 22.492L22.098 -2.38419e-06L0 6.70914ZM340.827 119.737L340.709 121.733L340.827 119.737ZM5.81774 8.14491L5.30238 10.0774C6.55501 10.4114 7.82289 10.7649 9.10593 11.1371L9.66319 9.21635L10.2205 7.29556C8.91103 6.91566 7.61518 6.55436 6.33311 6.21245L5.81774 8.14491ZM13.5351 10.3812L12.9408 12.2909C14.1803 12.6766 15.433 13.0784 16.6988 13.4957L17.325 11.5962L17.9511 9.69676C16.6652 9.27285 15.3912 8.86423 14.1294 8.47156L13.5351 10.3812ZM21.1591 12.8928L20.5045 14.7826C21.7346 15.2087 22.9765 15.6483 24.23 16.1009L24.9092 14.2197L25.5883 12.3386C24.3193 11.8804 23.0611 11.435 21.8137 11.0029L21.1591 12.8928ZM28.7024 15.615L28.0012 17.488C29.2261 17.9466 30.4615 18.4166 31.7073 18.8975L32.4276 17.0318L33.1479 15.166C31.89 14.6803 30.6419 14.2055 29.4036 13.7419L28.7024 15.615ZM36.1799 18.5007L35.4424 20.3598C36.6656 20.845 37.8983 21.3399 39.1406 21.8443L39.893 19.9913L40.6454 18.1382C39.3937 17.63 38.151 17.131 36.9173 16.6416L36.1799 18.5007ZM43.606 21.5147L42.8404 23.3623C44.0648 23.8697 45.2981 24.3855 46.5402 24.9095L47.3175 23.0667L48.0948 21.2239C46.8454 20.6969 45.6043 20.1778 44.3716 19.667L43.606 21.5147ZM50.994 24.6297L50.2066 26.4682C51.4347 26.9942 52.6711 27.5276 53.9156 28.0679L54.7121 26.2334L55.5086 24.3988C54.2584 23.856 53.016 23.3201 51.7815 22.7913L50.994 24.6297ZM58.3556 27.8245L57.5514 29.6557C58.771 30.1912 59.9981 30.7329 61.2327 31.2805L62.0435 29.4523L62.8544 27.624C61.6156 27.0746 60.384 26.5309 59.1597 25.9932L58.3556 27.8245ZM65.7004 31.0812L64.8838 32.9069C66.0937 33.448 67.3105 33.9943 68.5342 34.5455L69.3556 32.722L70.177 30.8984C68.9503 30.3459 67.7303 29.7982 66.5169 29.2555L65.7004 31.0812ZM73.0366 34.3851L72.2112 36.2068C73.4126 36.7512 74.6205 37.2999 75.8348 37.8526L76.6634 36.0323L77.492 34.2121C76.2758 33.6584 75.0658 33.1088 73.862 32.5633L73.0366 34.3851ZM80.3279 37.7037L79.4968 39.5228C80.7053 40.0749 81.9199 40.6307 83.1405 41.1899L83.9735 39.3716L84.8065 37.5534C83.5848 36.9937 82.369 36.4373 81.1591 35.8845L80.3279 37.7037ZM87.6114 41.0398L86.7772 42.8575C87.9953 43.4165 89.2192 43.9786 90.4491 44.5436L91.2839 42.7262L92.1188 40.9087C90.8887 40.3437 89.6643 39.7814 88.4456 39.2221L87.6114 41.0398ZM94.9067 44.3905L94.0717 46.2079C95.2824 46.7641 96.4986 47.3228 97.7203 47.8837L98.5548 46.0662L99.3893 44.2486C98.1681 43.6879 96.9522 43.1293 95.7416 42.5732L94.9067 44.3905ZM102.217 47.7468L101.384 49.5648C102.589 50.1172 103.799 50.6715 105.014 51.2275L105.846 49.4088L106.678 47.5902C105.464 47.0347 104.255 46.4808 103.051 45.9288L102.217 47.7468ZM109.504 51.0808L108.674 52.9003C109.888 53.4543 111.107 54.0098 112.331 54.5666L113.159 52.746L113.987 50.9255C112.765 50.3695 111.547 49.8147 110.335 49.2613L109.504 51.0808ZM116.8 54.399L115.975 56.2208C117.194 56.7732 118.418 57.3267 119.647 57.8809L120.47 56.0578L121.292 54.2346C120.065 53.6814 118.843 53.1289 117.626 52.5773L116.8 54.399ZM124.124 57.702L123.306 59.5268C124.521 60.0719 125.74 60.6177 126.964 61.1638L127.779 59.3374L128.594 57.5109C127.373 56.966 126.156 56.4214 124.943 55.8773L124.124 57.702ZM131.46 60.9747L130.649 62.8031C131.867 63.343 133.089 63.883 134.315 64.4231L135.121 62.5927L135.927 60.7624C134.704 60.2237 133.485 59.685 132.271 59.1464L131.46 60.9747ZM138.79 64.2028L137.989 66.0353C139.218 66.5726 140.451 67.1096 141.688 67.6463L142.484 65.8115L143.28 63.9767C142.046 63.4416 140.817 62.9061 139.591 62.3703L138.79 64.2028ZM146.157 67.3981L145.367 69.2354C146.593 69.7628 147.823 70.2897 149.057 70.8159L149.841 68.9761L150.626 67.1364C149.396 66.6119 148.17 66.0867 146.947 65.5609L146.157 67.3981ZM153.549 70.5497L152.771 72.3921C153.999 72.9107 155.231 73.4284 156.466 73.9451L157.238 72.0999L158.009 70.2547C156.778 69.7399 155.551 69.2241 154.327 68.7073L153.549 70.5497ZM160.939 73.6396L160.174 75.4876C161.414 76.0006 162.657 76.5124 163.905 77.0229L164.662 75.1719L165.42 73.3209C164.177 72.8125 162.939 72.3026 161.704 71.7915L160.939 73.6396ZM168.37 76.6806L167.62 78.5346C168.858 79.0357 170.101 79.5353 171.346 80.0332L172.089 78.1761L172.831 76.3189C171.591 75.8231 170.354 75.3256 169.12 74.8266L168.37 76.6806ZM175.829 79.6615L175.094 81.5218C176.337 82.0122 177.583 82.5007 178.832 82.9872L179.558 81.1236L180.284 79.2599C179.04 78.7756 177.8 78.2892 176.563 77.8011L175.829 79.6615ZM183.296 82.5693L182.578 84.4363C183.831 84.9172 185.086 85.3961 186.345 85.8727L187.053 84.0023L187.761 82.1318C186.509 81.6575 185.259 81.181 184.013 80.7023L183.296 82.5693ZM190.806 85.4125L190.107 87.2864C191.36 87.7535 192.615 88.2182 193.874 88.6805L194.564 86.803L195.253 84.9255C194.001 84.4657 192.751 84.0033 191.505 83.5386L190.806 85.4125ZM198.34 88.1783L197.661 90.0594C198.92 90.5143 200.183 90.9666 201.449 91.4161L202.118 89.5314L202.787 87.6467C201.528 87.1996 200.272 86.7498 199.02 86.2973L198.34 88.1783ZM205.896 90.8613L205.237 92.7497C206.503 93.1914 207.772 93.6302 209.044 94.0659L209.693 92.1738L210.341 90.2817C209.076 89.8485 207.814 89.4122 206.555 88.973L205.896 90.8613ZM213.496 93.4642L212.859 95.36C214.126 95.7859 215.397 96.2086 216.67 96.628L217.296 94.7284L217.921 92.8288C216.656 92.4119 215.393 91.9917 214.133 91.5684L213.496 93.4642ZM221.112 95.9727L220.498 97.8761C221.776 98.2883 223.057 98.6971 224.34 99.1022L224.942 97.195L225.544 95.2878C224.269 94.8852 222.996 94.479 221.727 94.0693L221.112 95.9727ZM228.763 98.3881L228.173 100.299C229.454 100.694 230.738 101.086 232.024 101.474L232.601 99.5592L233.179 97.6443C231.901 97.259 230.626 96.8699 229.353 96.4771L228.763 98.3881ZM236.455 100.707L235.891 102.626C237.174 103.004 238.46 103.377 239.749 103.747L240.3 101.825L240.852 99.9021C239.572 99.535 238.295 99.1638 237.02 98.7887L236.455 100.707ZM244.159 102.917L243.621 104.843C244.914 105.205 246.211 105.562 247.509 105.915L248.034 103.985L248.558 102.055C247.269 101.704 245.982 101.35 244.697 100.991L244.159 102.917ZM251.906 105.022L251.396 106.955C252.691 107.297 253.989 107.635 255.29 107.968L255.786 106.03L256.282 104.093C254.991 103.762 253.702 103.427 252.416 103.088L251.906 105.022ZM259.68 107.012L259.199 108.953C260.501 109.276 261.806 109.594 263.113 109.908L263.579 107.963L264.046 106.018C262.749 105.707 261.454 105.391 260.162 105.071L259.68 107.012ZM267.479 108.882L267.028 110.831C268.336 111.134 269.646 111.432 270.958 111.725L271.394 109.773L271.83 107.821C270.528 107.53 269.228 107.234 267.931 106.934L267.479 108.882ZM275.318 110.632L274.898 112.588C276.208 112.869 277.52 113.145 278.834 113.416L279.238 111.457L279.642 109.498C278.338 109.23 277.037 108.956 275.738 108.677L275.318 110.632ZM283.171 112.251L282.783 114.213C284.102 114.474 285.423 114.729 286.746 114.978L287.117 113.013L287.488 111.048C286.176 110.8 284.866 110.547 283.558 110.289L283.171 112.251ZM291.057 113.739L290.703 115.707C292.023 115.944 293.346 116.176 294.67 116.402L295.007 114.431L295.343 112.459C294.03 112.235 292.719 112.005 291.411 111.77L291.057 113.739ZM298.97 115.089L298.651 117.063C299.975 117.277 301.302 117.485 302.631 117.688L302.932 115.71L303.233 113.733C301.916 113.533 300.601 113.326 299.288 113.114L298.97 115.089ZM306.897 116.295L306.614 118.275C307.944 118.465 309.276 118.649 310.61 118.827L310.874 116.845L311.139 114.862C309.817 114.686 308.497 114.504 307.18 114.316L306.897 116.295ZM314.858 117.357L314.612 119.342C315.942 119.506 317.274 119.665 318.608 119.817L318.835 117.83L319.062 115.843C317.74 115.692 316.421 115.535 315.104 115.372L314.858 117.357ZM322.824 118.265L322.616 120.255C323.954 120.394 325.294 120.527 326.636 120.654L326.824 118.663L327.012 116.672C325.683 116.546 324.356 116.414 323.031 116.276L322.824 118.265ZM330.813 119.019L330.645 121.012C331.982 121.125 333.321 121.231 334.662 121.331L334.81 119.336L334.958 117.342C333.631 117.243 332.305 117.138 330.981 117.026L330.813 119.019ZM338.818 119.613L338.69 121.609C339.363 121.652 340.036 121.694 340.709 121.733L340.827 119.737L340.944 117.74C340.277 117.701 339.611 117.66 338.946 117.617L338.818 119.613ZM340.827 119.737L340.709 121.733C341.375 121.772 342.039 121.814 342.703 121.858L342.837 119.863L342.97 117.867C342.296 117.822 341.62 117.78 340.944 117.74L340.827 119.737ZM346.843 120.162L346.678 122.156C348 122.265 349.319 122.384 350.635 122.514L350.831 120.524L351.027 118.533C349.69 118.402 348.351 118.28 347.008 118.169L346.843 120.162ZM354.8 120.946L354.573 122.933C355.89 123.083 357.205 123.244 358.516 123.414L358.773 121.431L359.031 119.447C357.699 119.274 356.365 119.111 355.027 118.959L354.8 120.946ZM362.75 121.978L362.462 123.957C363.774 124.148 365.083 124.349 366.389 124.559L366.707 122.585L367.025 120.61C365.699 120.397 364.37 120.193 363.038 119.999L362.75 121.978ZM370.646 123.25L370.298 125.219C371.604 125.45 372.907 125.69 374.207 125.939L374.584 123.975L374.961 122.011C373.642 121.758 372.319 121.514 370.993 121.28L370.646 123.25ZM378.517 124.76L378.112 126.718C379.41 126.987 380.705 127.266 381.997 127.553L382.431 125.601L382.866 123.648C381.555 123.357 380.241 123.074 378.923 122.801L378.517 124.76ZM386.326 126.496L385.864 128.442C387.155 128.749 388.443 129.065 389.728 129.389L390.217 127.45L390.707 125.511C389.404 125.182 388.098 124.862 386.788 124.551L386.326 126.496ZM394.096 128.458L393.58 130.391C394.861 130.733 396.138 131.084 397.413 131.444L397.956 129.519L398.5 127.595C397.207 127.23 395.912 126.874 394.613 126.526L394.096 128.458ZM401.797 130.632L401.228 132.549C402.5 132.927 403.77 133.313 405.036 133.707L405.63 131.798L406.225 129.888C404.942 129.489 403.656 129.097 402.366 128.714L401.797 130.632ZM409.448 133.014L408.828 134.916C410.089 135.327 411.347 135.746 412.602 136.173L413.246 134.279L413.89 132.386C412.619 131.954 411.345 131.529 410.067 131.113L409.448 133.014ZM417.025 135.592L416.357 137.477C417.608 137.92 418.856 138.371 420.101 138.83L420.793 136.953L421.484 135.077C420.224 134.612 418.96 134.156 417.693 133.707L417.025 135.592ZM424.543 138.361L423.829 140.229C425.068 140.703 426.304 141.184 427.537 141.672L428.273 139.813L429.01 137.953C427.762 137.459 426.511 136.972 425.257 136.493L424.543 138.361ZM431.986 141.308L431.227 143.159C432.456 143.662 433.682 144.173 434.905 144.69L435.684 142.848L436.463 141.006C435.227 140.483 433.987 139.966 432.744 139.457L431.986 141.308ZM439.364 144.429L438.564 146.262C439.78 146.793 440.994 147.33 442.204 147.874L443.024 146.05L443.844 144.226C442.62 143.676 441.394 143.132 440.163 142.596L439.364 144.429ZM446.667 147.711L445.827 149.526C447.033 150.083 448.236 150.647 449.436 151.217L450.294 149.411L451.152 147.604C449.94 147.028 448.725 146.459 447.506 145.895L446.667 147.711ZM453.902 151.148L453.025 152.945C454.219 153.528 455.409 154.116 456.597 154.71L457.491 152.921L458.386 151.132C457.187 150.532 455.984 149.938 454.779 149.35L453.902 151.148ZM461.064 154.729L460.151 156.509C461.334 157.115 462.514 157.727 463.691 158.344L464.62 156.573L465.549 154.802C464.361 154.179 463.17 153.561 461.976 152.949L461.064 154.729ZM468.158 158.45L467.212 160.212C468.383 160.84 469.551 161.473 470.715 162.112L471.676 160.358L472.638 158.604C471.463 157.96 470.284 157.321 469.103 156.687L468.158 158.45ZM475.18 162.298L474.203 164.043C475.364 164.693 476.521 165.347 477.676 166.006L478.668 164.269L479.659 162.532C478.495 161.868 477.327 161.208 476.156 160.553L475.18 162.298ZM482.137 166.269L481.131 167.997C482.279 168.666 483.425 169.339 484.567 170.016L485.587 168.296L486.607 166.575C485.455 165.893 484.301 165.214 483.143 164.54L482.137 166.269ZM489.025 170.352L487.992 172.065C489.131 172.752 490.268 173.444 491.401 174.14L492.447 172.436L493.494 170.732C492.352 170.031 491.207 169.333 490.059 168.64L489.025 170.352ZM495.851 174.544L494.792 176.24C495.919 176.944 497.044 177.652 498.165 178.363L499.237 176.674L500.308 174.985C499.179 174.269 498.046 173.556 496.91 172.847L495.851 174.544ZM502.614 178.834L501.531 180.515C502.651 181.236 503.767 181.961 504.881 182.689L505.975 181.015L507.07 179.341C505.949 178.608 504.825 177.879 503.697 177.152L502.614 178.834ZM509.318 183.216L508.212 184.883C509.32 185.618 510.425 186.356 511.527 187.096L512.643 185.437L513.759 183.777C512.65 183.032 511.538 182.289 510.423 181.55L509.318 183.216ZM515.966 187.686L514.84 189.339C515.941 190.089 517.039 190.842 518.135 191.598L519.27 189.952L520.406 188.305C519.305 187.545 518.2 186.788 517.092 186.033L515.966 187.686ZM522.556 192.233L521.411 193.872C522.502 194.634 523.591 195.399 524.676 196.165L525.83 194.532L526.984 192.898C525.893 192.128 524.799 191.359 523.702 190.593L522.556 192.233ZM529.102 196.857L527.939 198.484C529.024 199.259 530.105 200.036 531.184 200.815L532.355 199.193L533.526 197.572C532.442 196.789 531.355 196.008 530.264 195.229L529.102 196.857ZM535.59 201.541L534.411 203.157C535.488 203.943 536.562 204.73 537.634 205.519L538.82 203.909L540.006 202.299C538.93 201.506 537.851 200.715 536.768 199.925L535.59 201.541ZM542.046 206.296L540.853 207.902C541.923 208.697 542.99 209.494 544.054 210.292L545.254 208.691L546.454 207.091C545.386 206.29 544.314 205.49 543.24 204.691L542.046 206.296ZM548.443 211.093L547.237 212.688C548.303 213.495 549.367 214.302 550.428 215.111L551.64 213.52L552.852 211.929C551.788 211.118 550.72 210.307 549.649 209.498L548.443 211.093ZM554.827 215.958L553.609 217.544C554.666 218.356 555.72 219.168 556.771 219.98L557.995 218.398L559.218 216.816C558.163 216.001 557.106 215.186 556.045 214.371L554.827 215.958ZM561.146 220.842L559.918 222.421C560.978 223.245 562.034 224.069 563.087 224.893L564.319 223.318L565.552 221.743C564.496 220.917 563.437 220.09 562.374 219.263L561.146 220.842ZM567.473 225.793L566.236 227.364C567.283 228.188 568.326 229.011 569.366 229.834L570.607 228.265L571.847 226.696C570.805 225.872 569.759 225.047 568.71 224.221L567.473 225.793ZM573.744 230.751L572.5 232.317C573.551 233.152 574.598 233.986 575.643 234.819L576.89 233.256L578.137 231.692C577.09 230.857 576.041 230.022 574.988 229.185L573.744 230.751ZM580.016 235.753L578.767 237.315C579.805 238.146 580.839 238.975 581.871 239.803L583.123 238.243L584.375 236.684C583.342 235.855 582.306 235.024 581.266 234.192L580.016 235.753ZM586.26 240.765L585.007 242.323C586.051 243.164 587.093 244.003 588.131 244.84L589.386 243.283L590.642 241.726C589.603 240.888 588.56 240.048 587.514 239.207L586.26 240.765ZM592.492 245.788L591.236 247.344C592.275 248.183 593.312 249.02 594.344 249.854L595.601 248.298L596.858 246.743C595.825 245.908 594.788 245.071 593.748 244.232L592.492 245.788ZM598.735 250.83L597.478 252.386C598.519 253.227 599.557 254.065 600.591 254.9L601.847 253.344L603.104 251.788C602.07 250.953 601.033 250.115 599.992 249.274L598.735 250.83ZM604.939 255.839L603.683 257.396C604.735 258.244 605.783 259.088 606.827 259.929L608.081 258.371L609.335 256.813C608.292 255.973 607.245 255.13 606.195 254.282L604.939 255.839ZM611.209 260.886L609.957 262.445C610.996 263.28 612.032 264.111 613.065 264.937L614.315 263.375L615.564 261.814C614.534 260.989 613.499 260.16 612.461 259.326L611.209 260.886ZM617.449 265.878L616.202 267.442C617.258 268.283 618.31 269.12 619.358 269.951L620.6 268.383L621.843 266.816C620.798 265.987 619.748 265.153 618.695 264.314L617.449 265.878ZM623.729 270.857L622.491 272.427C623.542 273.256 624.589 274.079 625.633 274.895L626.866 273.321L628.098 271.746C627.058 270.932 626.015 270.112 624.967 269.286L623.729 270.857ZM630.05 275.804L628.823 277.383C629.883 278.206 630.939 279.022 631.991 279.832L633.21 278.247L634.43 276.661C633.383 275.856 632.332 275.043 631.277 274.224L630.05 275.804ZM636.364 280.661L635.153 282.252C636.235 283.077 637.314 283.894 638.389 284.703L639.591 283.105L640.794 281.507C639.726 280.703 638.653 279.891 637.576 279.07L636.364 280.661ZM642.793 285.499L641.6 287.105C642.672 287.901 643.739 288.688 644.802 289.467L645.984 287.853L647.165 286.239C646.11 285.467 645.05 284.685 643.985 283.894L642.793 285.499ZM649.264 290.235L648.095 291.858C649.188 292.645 650.276 293.422 651.361 294.188L652.515 292.555L653.67 290.922C652.595 290.163 651.516 289.392 650.432 288.612L649.264 290.235ZM655.77 294.833L654.631 296.477C655.756 297.256 656.876 298.023 657.991 298.778L659.112 297.122L660.233 295.465C659.13 294.719 658.022 293.96 656.909 293.189L655.77 294.833ZM662.423 299.335L661.322 301.004C662.451 301.749 663.576 302.481 664.695 303.198L665.774 301.514L666.854 299.83C665.749 299.123 664.64 298.401 663.525 297.665L662.423 299.335ZM669.188 303.667L668.134 305.366C669.275 306.074 670.411 306.766 671.542 307.443L672.568 305.726L673.595 304.01C672.483 303.345 671.365 302.664 670.242 301.967L669.188 303.667ZM676.055 307.77L675.06 309.504C676.241 310.182 677.417 310.841 678.587 311.481L679.547 309.727L680.507 307.972C679.361 307.345 678.209 306.699 677.05 306.035L676.055 307.77ZM683.054 311.595L682.133 313.371C683.36 314.007 684.58 314.62 685.794 315.211L686.669 313.412L687.544 311.614C686.362 311.039 685.172 310.44 683.974 309.82L683.054 311.595ZM690.244 315.092L689.42 316.914C690.685 317.487 691.944 318.034 693.197 318.553L693.963 316.706L694.729 314.858C693.518 314.356 692.297 313.826 691.069 313.27L690.244 315.092ZM697.663 318.166L696.963 320.04C698.258 320.524 699.547 320.978 700.829 321.401L701.455 319.501L702.081 317.602C700.851 317.197 699.612 316.76 698.364 316.293L697.663 318.166ZM705.278 320.668L704.737 322.594C706.069 322.968 707.394 323.306 708.713 323.606L709.156 321.655L709.6 319.705C708.35 319.421 707.089 319.1 705.818 318.743L705.278 320.668ZM713.083 322.436L712.749 324.408C713.418 324.522 714.086 324.625 714.751 324.717L715.027 322.737L715.302 320.756C714.677 320.669 714.048 320.572 713.417 320.465L713.083 322.436Z" fill="black"/>
</svg>
